<svg width="13" height="15" viewBox="0 0 13 15" fill="none" xmlns="http://www.w3.org/2000/svg">
<path d="M12.2815 6.69729C12.162 6.81278 12.0024 6.87734 11.8363 6.87734C11.6701 6.87734 11.5105 6.81278 11.391 6.69729L6.8374 2.13584V14.3752C6.8374 14.5409 6.77157 14.6999 6.65438 14.8171C6.5372 14.9342 6.37826 15.0001 6.21254 15.0001C6.04682 15.0001 5.88788 14.9342 5.7707 14.8171C5.65352 14.6999 5.58768 14.5409 5.58768 14.3752V2.13584L1.03404 6.69729C0.912634 6.79693 0.758505 6.84786 0.601633 6.84015C0.444761 6.83245 0.296363 6.76667 0.185304 6.65561C0.0742457 6.54455 0.00846676 6.39615 0.000762231 6.23928C-0.0069423 6.08241 0.0439785 5.92828 0.14362 5.80687L5.76733 0.183161C5.8858 0.0658246 6.0458 0 6.21254 0C6.37928 0 6.53928 0.0658246 6.65775 0.183161L12.2815 5.80687C12.3988 5.92534 12.4646 6.08534 12.4646 6.25208C12.4646 6.41882 12.3988 6.57882 12.2815 6.69729Z" fill="currentColor"/>
</svg>
