<svg width="8" height="13" viewBox="0 0 8 13" fill="none" xmlns="http://www.w3.org/2000/svg">
<path d="M0.256423 12.7186C0.0854743 12.5476 0 12.3452 0 12.1114C0 11.8775 0.0854743 11.6753 0.256423 11.5048L5.26522 6.49605L0.239328 1.47016C0.079776 1.31061 0 1.11117 0 0.871838C0 0.63251 0.0854743 0.427372 0.256423 0.256423C0.427372 0.0854743 0.629775 0 0.863632 0C1.09749 0 1.29967 0.0854743 1.47016 0.256423L7.21403 6.01739C7.28241 6.08577 7.33096 6.15985 7.35968 6.23962C7.3884 6.3194 7.40253 6.40488 7.40208 6.49605C7.40208 6.58722 7.38772 6.67269 7.359 6.75247C7.33028 6.83225 7.28196 6.90632 7.21403 6.9747L1.45306 12.7357C1.29351 12.8952 1.09681 12.975 0.862948 12.975C0.629091 12.975 0.426916 12.8895 0.256423 12.7186Z" fill="currentColor"/>
</svg>
