<svg width="19" height="25" viewBox="0 0 19 25" fill="none" xmlns="http://www.w3.org/2000/svg">
<path d="M2.68639 20.7257L9.40237 17.8379L16.1183 20.7257V3.33135H2.68639V20.7257ZM1.88047 24.0166C1.43274 24.1957 1.0074 24.1563 0.604438 23.8984C0.201479 23.6405 0 23.2662 0 22.7754V3.33135C0 2.59259 0.263266 1.95995 0.789799 1.43342C1.31633 0.906884 1.94853 0.644065 2.68639 0.644961H16.1183C16.8571 0.644961 17.4897 0.908227 18.0163 1.43476C18.5428 1.96129 18.8056 2.59349 18.8047 3.33135V22.7741C18.8047 23.2666 18.6033 23.6418 18.2003 23.8997C17.7973 24.1576 17.372 24.1965 16.9243 24.0166L9.40237 20.7929L1.88047 24.0166Z" fill="#444444"/>
</svg>
