<svg width="35" height="25" viewBox="0 0 35 25" fill="none" xmlns="http://www.w3.org/2000/svg">
<path d="M34.0222 12.1136C32.6857 8.65642 30.3654 5.66661 27.3482 3.51373C24.3309 1.36086 20.7489 0.139287 17.045 0C13.341 0.139287 9.75905 1.36086 6.74179 3.51373C3.72453 5.66661 1.40424 8.65642 0.0676984 12.1136C-0.0225661 12.3633 -0.0225661 12.6367 0.0676984 12.8864C1.40424 16.3436 3.72453 19.3334 6.74179 21.4863C9.75905 23.6391 13.341 24.8607 17.045 25C20.7489 24.8607 24.3309 23.6391 27.3482 21.4863C30.3654 19.3334 32.6857 16.3436 34.0222 12.8864C34.1125 12.6367 34.1125 12.3633 34.0222 12.1136ZM17.045 22.7273C11.0222 22.7273 4.65861 18.2614 2.35179 12.5C4.65861 6.73864 11.0222 2.27273 17.045 2.27273C23.0677 2.27273 29.4313 6.73864 31.7382 12.5C29.4313 18.2614 23.0677 22.7273 17.045 22.7273Z" fill="white"/>
<path d="M17.0457 5.68176C15.6972 5.68176 14.379 6.08164 13.2577 6.83083C12.1365 7.58003 11.2626 8.64488 10.7465 9.89074C10.2305 11.1366 10.0955 12.5075 10.3586 13.8301C10.6216 15.1527 11.271 16.3676 12.2245 17.3211C13.1781 18.2747 14.393 18.924 15.7156 19.1871C17.0382 19.4502 18.4091 19.3152 19.6549 18.7991C20.9008 18.2831 21.9656 17.4092 22.7148 16.2879C23.464 15.1667 23.8639 13.8485 23.8639 12.4999C23.8639 10.6917 23.1456 8.95742 21.8669 7.67876C20.5882 6.4001 18.854 5.68176 17.0457 5.68176ZM17.0457 17.0454C16.1467 17.0454 15.2679 16.7788 14.5204 16.2794C13.7729 15.7799 13.1903 15.07 12.8463 14.2394C12.5022 13.4088 12.4122 12.4949 12.5876 11.6132C12.763 10.7314 13.1959 9.92152 13.8316 9.28582C14.4673 8.65013 15.2772 8.21722 16.1589 8.04183C17.0407 7.86644 17.9546 7.95646 18.7852 8.30049C19.6158 8.64453 20.3257 9.22713 20.8251 9.97463C21.3246 10.7221 21.5912 11.6009 21.5912 12.4999C21.5912 13.7055 21.1123 14.8616 20.2598 15.7141C19.4074 16.5665 18.2513 17.0454 17.0457 17.0454Z" fill="white"/>
</svg>
