<svg width="295" height="220" viewBox="0 0 295 220" fill="none" xmlns="http://www.w3.org/2000/svg">
<rect width="295" height="220" rx="29" fill="#FAFAFF"/>
<path d="M98.404 32.108C97.836 32.108 97.336 32.036 96.904 31.892C96.472 31.74 96.108 31.516 95.812 31.22C95.524 30.924 95.304 30.556 95.152 30.116C95 29.676 94.924 29.168 94.924 28.592V24.08C94.924 23.872 94.976 23.716 95.08 23.612C95.192 23.508 95.348 23.456 95.548 23.456C95.748 23.456 95.9 23.508 96.004 23.612C96.116 23.716 96.172 23.872 96.172 24.08V28.568C96.172 29.392 96.36 30.008 96.736 30.416C97.12 30.824 97.676 31.028 98.404 31.028C99.14 31.028 99.696 30.824 100.072 30.416C100.448 30.008 100.636 29.392 100.636 28.568V24.08C100.636 23.872 100.688 23.716 100.792 23.612C100.904 23.508 101.056 23.456 101.248 23.456C101.448 23.456 101.6 23.508 101.704 23.612C101.808 23.716 101.86 23.872 101.86 24.08V28.592C101.86 29.36 101.728 30.008 101.464 30.536C101.208 31.056 100.824 31.448 100.312 31.712C99.8 31.976 99.164 32.108 98.404 32.108ZM104.253 34.244C104.061 34.244 103.913 34.192 103.809 34.088C103.705 33.984 103.653 33.832 103.653 33.632V26.672C103.653 26.472 103.705 26.32 103.809 26.216C103.913 26.112 104.057 26.06 104.241 26.06C104.433 26.06 104.581 26.112 104.685 26.216C104.789 26.32 104.841 26.472 104.841 26.672V27.716L104.709 27.464C104.837 27.032 105.089 26.688 105.465 26.432C105.841 26.168 106.285 26.036 106.797 26.036C107.317 26.036 107.769 26.16 108.153 26.408C108.545 26.656 108.845 27.004 109.053 27.452C109.269 27.9 109.377 28.44 109.377 29.072C109.377 29.688 109.269 30.228 109.053 30.692C108.845 31.148 108.549 31.5 108.165 31.748C107.781 31.988 107.325 32.108 106.797 32.108C106.293 32.108 105.853 31.98 105.477 31.724C105.101 31.468 104.849 31.128 104.721 30.704H104.865V33.632C104.865 33.832 104.809 33.984 104.697 34.088C104.593 34.192 104.445 34.244 104.253 34.244ZM106.497 31.172C106.833 31.172 107.125 31.092 107.373 30.932C107.621 30.772 107.813 30.536 107.949 30.224C108.085 29.912 108.153 29.528 108.153 29.072C108.153 28.384 108.001 27.864 107.697 27.512C107.401 27.16 107.001 26.984 106.497 26.984C106.169 26.984 105.877 27.064 105.621 27.224C105.373 27.376 105.181 27.608 105.045 27.92C104.909 28.232 104.841 28.616 104.841 29.072C104.841 29.752 104.993 30.272 105.297 30.632C105.601 30.992 106.001 31.172 106.497 31.172ZM112.627 32.108C112.003 32.108 111.531 31.928 111.211 31.568C110.899 31.2 110.743 30.672 110.743 29.984V24.068C110.743 23.868 110.795 23.716 110.899 23.612C111.003 23.508 111.151 23.456 111.343 23.456C111.535 23.456 111.683 23.508 111.787 23.612C111.899 23.716 111.955 23.868 111.955 24.068V29.912C111.955 30.312 112.035 30.612 112.195 30.812C112.363 31.004 112.603 31.1 112.915 31.1C112.987 31.1 113.051 31.1 113.107 31.1C113.163 31.092 113.219 31.084 113.275 31.076C113.371 31.068 113.439 31.096 113.479 31.16C113.519 31.216 113.539 31.336 113.539 31.52C113.539 31.688 113.503 31.82 113.431 31.916C113.359 32.004 113.243 32.06 113.083 32.084C113.011 32.092 112.935 32.096 112.855 32.096C112.775 32.104 112.699 32.108 112.627 32.108ZM116.896 32.108C116.304 32.108 115.792 31.984 115.36 31.736C114.936 31.488 114.604 31.136 114.364 30.68C114.124 30.224 114.004 29.688 114.004 29.072C114.004 28.6 114.072 28.18 114.208 27.812C114.344 27.444 114.536 27.128 114.784 26.864C115.04 26.592 115.344 26.388 115.696 26.252C116.056 26.108 116.456 26.036 116.896 26.036C117.48 26.036 117.984 26.16 118.408 26.408C118.84 26.656 119.176 27.008 119.416 27.464C119.656 27.912 119.776 28.448 119.776 29.072C119.776 29.536 119.708 29.956 119.572 30.332C119.436 30.708 119.24 31.028 118.984 31.292C118.736 31.556 118.432 31.76 118.072 31.904C117.72 32.04 117.328 32.108 116.896 32.108ZM116.896 31.172C117.224 31.172 117.512 31.092 117.76 30.932C118.008 30.772 118.2 30.536 118.336 30.224C118.48 29.912 118.552 29.528 118.552 29.072C118.552 28.384 118.4 27.864 118.096 27.512C117.792 27.16 117.392 26.984 116.896 26.984C116.56 26.984 116.268 27.064 116.02 27.224C115.772 27.376 115.576 27.608 115.432 27.92C115.296 28.232 115.228 28.616 115.228 29.072C115.228 29.752 115.38 30.272 115.684 30.632C115.988 30.992 116.392 31.172 116.896 31.172ZM123.009 32.108C122.601 32.108 122.233 32.028 121.905 31.868C121.585 31.708 121.333 31.492 121.149 31.22C120.965 30.948 120.873 30.64 120.873 30.296C120.873 29.864 120.981 29.524 121.197 29.276C121.421 29.02 121.785 28.84 122.289 28.736C122.801 28.624 123.489 28.568 124.353 28.568H124.917V29.312H124.365C123.789 29.312 123.333 29.34 122.997 29.396C122.661 29.452 122.421 29.548 122.277 29.684C122.141 29.812 122.073 29.992 122.073 30.224C122.073 30.528 122.177 30.776 122.385 30.968C122.593 31.152 122.881 31.244 123.249 31.244C123.545 31.244 123.805 31.176 124.029 31.04C124.253 30.896 124.429 30.704 124.557 30.464C124.693 30.224 124.761 29.948 124.761 29.636V28.256C124.761 27.8 124.665 27.472 124.473 27.272C124.281 27.072 123.965 26.972 123.525 26.972C123.269 26.972 123.001 27.004 122.721 27.068C122.449 27.132 122.165 27.24 121.869 27.392C121.733 27.456 121.617 27.476 121.521 27.452C121.425 27.428 121.349 27.376 121.293 27.296C121.237 27.208 121.205 27.116 121.197 27.02C121.197 26.916 121.221 26.816 121.269 26.72C121.325 26.624 121.417 26.552 121.545 26.504C121.897 26.336 122.245 26.216 122.589 26.144C122.933 26.072 123.257 26.036 123.561 26.036C124.097 26.036 124.537 26.12 124.881 26.288C125.233 26.456 125.493 26.712 125.661 27.056C125.829 27.4 125.913 27.844 125.913 28.388V31.472C125.913 31.664 125.865 31.816 125.769 31.928C125.673 32.032 125.533 32.084 125.349 32.084C125.173 32.084 125.033 32.032 124.929 31.928C124.825 31.816 124.773 31.664 124.773 31.472V30.692H124.881C124.817 30.988 124.697 31.244 124.521 31.46C124.353 31.668 124.141 31.828 123.885 31.94C123.629 32.052 123.337 32.108 123.009 32.108ZM129.814 32.108C129.302 32.108 128.85 31.988 128.458 31.748C128.074 31.5 127.774 31.148 127.558 30.692C127.342 30.228 127.234 29.688 127.234 29.072C127.234 28.44 127.342 27.9 127.558 27.452C127.774 27.004 128.074 26.656 128.458 26.408C128.85 26.16 129.302 26.036 129.814 26.036C130.326 26.036 130.766 26.164 131.134 26.42C131.51 26.668 131.762 27.004 131.89 27.428H131.758V24.068C131.758 23.868 131.81 23.716 131.914 23.612C132.018 23.508 132.166 23.456 132.358 23.456C132.55 23.456 132.698 23.508 132.802 23.612C132.914 23.716 132.97 23.868 132.97 24.068V31.472C132.97 31.664 132.918 31.816 132.814 31.928C132.71 32.032 132.562 32.084 132.37 32.084C132.178 32.084 132.03 32.032 131.926 31.928C131.822 31.816 131.77 31.664 131.77 31.472V30.416L131.902 30.68C131.774 31.112 131.522 31.46 131.146 31.724C130.778 31.98 130.334 32.108 129.814 32.108ZM130.126 31.172C130.454 31.172 130.742 31.092 130.99 30.932C131.238 30.772 131.43 30.536 131.566 30.224C131.71 29.912 131.782 29.528 131.782 29.072C131.782 28.384 131.63 27.864 131.326 27.512C131.022 27.16 130.622 26.984 130.126 26.984C129.79 26.984 129.498 27.064 129.25 27.224C129.002 27.376 128.806 27.608 128.662 27.92C128.526 28.232 128.458 28.616 128.458 29.072C128.458 29.752 128.61 30.272 128.914 30.632C129.218 30.992 129.622 31.172 130.126 31.172ZM141.6 32.084C141.408 32.084 141.26 32.032 141.156 31.928C141.052 31.816 141 31.664 141 31.472V26.672C141 26.472 141.052 26.32 141.156 26.216C141.26 26.112 141.404 26.06 141.588 26.06C141.78 26.06 141.924 26.112 142.02 26.216C142.124 26.32 142.176 26.472 142.176 26.672V27.608L142.044 27.392C142.22 26.944 142.496 26.608 142.872 26.384C143.248 26.152 143.68 26.036 144.168 26.036C144.632 26.036 145.016 26.124 145.32 26.3C145.632 26.468 145.864 26.728 146.016 27.08C146.168 27.424 146.244 27.86 146.244 28.388V31.472C146.244 31.664 146.192 31.816 146.088 31.928C145.984 32.032 145.836 32.084 145.644 32.084C145.444 32.084 145.292 32.032 145.188 31.928C145.084 31.816 145.032 31.664 145.032 31.472V28.46C145.032 27.956 144.932 27.588 144.732 27.356C144.54 27.124 144.236 27.008 143.82 27.008C143.332 27.008 142.94 27.16 142.644 27.464C142.356 27.768 142.212 28.176 142.212 28.688V31.472C142.212 31.88 142.008 32.084 141.6 32.084ZM150.663 32.108C150.023 32.108 149.471 31.988 149.007 31.748C148.551 31.5 148.195 31.152 147.939 30.704C147.691 30.248 147.567 29.708 147.567 29.084C147.567 28.476 147.691 27.944 147.939 27.488C148.187 27.032 148.527 26.676 148.959 26.42C149.391 26.164 149.883 26.036 150.435 26.036C150.843 26.036 151.207 26.104 151.527 26.24C151.847 26.368 152.119 26.56 152.343 26.816C152.575 27.064 152.747 27.368 152.859 27.728C152.979 28.088 153.039 28.492 153.039 28.94C153.039 29.076 152.999 29.18 152.919 29.252C152.839 29.316 152.719 29.348 152.559 29.348H148.527V28.604H152.223L152.019 28.772C152.019 28.372 151.959 28.032 151.839 27.752C151.727 27.472 151.555 27.26 151.323 27.116C151.099 26.964 150.819 26.888 150.483 26.888C150.107 26.888 149.787 26.976 149.523 27.152C149.267 27.328 149.071 27.572 148.935 27.884C148.799 28.196 148.731 28.56 148.731 28.976V29.048C148.731 29.752 148.895 30.284 149.223 30.644C149.559 30.996 150.043 31.172 150.675 31.172C150.915 31.172 151.167 31.14 151.431 31.076C151.703 31.012 151.959 30.904 152.199 30.752C152.335 30.672 152.455 30.636 152.559 30.644C152.671 30.652 152.759 30.688 152.823 30.752C152.895 30.816 152.939 30.896 152.955 30.992C152.971 31.088 152.955 31.188 152.907 31.292C152.859 31.388 152.775 31.476 152.655 31.556C152.383 31.74 152.067 31.88 151.707 31.976C151.347 32.064 150.999 32.108 150.663 32.108ZM156.414 32.084C156.246 32.084 156.098 32.044 155.97 31.964C155.85 31.876 155.754 31.74 155.682 31.556L153.918 26.888C153.854 26.728 153.834 26.588 153.858 26.468C153.882 26.34 153.942 26.24 154.038 26.168C154.142 26.096 154.274 26.06 154.434 26.06C154.578 26.06 154.694 26.096 154.782 26.168C154.878 26.232 154.958 26.36 155.022 26.552L156.594 30.98H156.306L157.938 26.504C157.994 26.352 158.07 26.24 158.166 26.168C158.262 26.096 158.386 26.06 158.538 26.06C158.69 26.06 158.814 26.096 158.91 26.168C159.014 26.24 159.09 26.352 159.138 26.504L160.734 30.98H160.47L162.066 26.528C162.13 26.344 162.21 26.22 162.306 26.156C162.41 26.092 162.526 26.06 162.654 26.06C162.814 26.06 162.934 26.1 163.014 26.18C163.102 26.26 163.15 26.364 163.158 26.492C163.174 26.612 163.154 26.744 163.098 26.888L161.334 31.556C161.262 31.732 161.162 31.864 161.034 31.952C160.914 32.04 160.774 32.084 160.614 32.084C160.446 32.084 160.298 32.04 160.17 31.952C160.05 31.864 159.954 31.732 159.882 31.556L158.202 27.008H158.802L157.134 31.556C157.07 31.732 156.974 31.864 156.846 31.952C156.726 32.04 156.582 32.084 156.414 32.084ZM168.19 32.072C167.998 32.072 167.85 32.016 167.746 31.904C167.642 31.784 167.59 31.62 167.59 31.412V26.732C167.59 26.524 167.642 26.364 167.746 26.252C167.85 26.14 167.998 26.084 168.19 26.084C168.382 26.084 168.53 26.14 168.634 26.252C168.746 26.364 168.802 26.524 168.802 26.732V31.412C168.802 31.62 168.75 31.784 168.646 31.904C168.542 32.016 168.39 32.072 168.19 32.072ZM168.19 24.836C167.95 24.836 167.762 24.776 167.626 24.656C167.498 24.536 167.434 24.368 167.434 24.152C167.434 23.928 167.498 23.76 167.626 23.648C167.762 23.528 167.95 23.468 168.19 23.468C168.43 23.468 168.614 23.528 168.742 23.648C168.878 23.76 168.946 23.928 168.946 24.152C168.946 24.368 168.878 24.536 168.742 24.656C168.614 24.776 168.43 24.836 168.19 24.836ZM171.132 32.084C170.94 32.084 170.792 32.032 170.688 31.928C170.584 31.816 170.532 31.664 170.532 31.472V26.672C170.532 26.472 170.584 26.32 170.688 26.216C170.792 26.112 170.936 26.06 171.12 26.06C171.312 26.06 171.456 26.112 171.552 26.216C171.656 26.32 171.708 26.472 171.708 26.672V27.656L171.576 27.392C171.736 26.968 171.984 26.636 172.32 26.396C172.656 26.156 173.06 26.036 173.532 26.036C174.02 26.036 174.416 26.152 174.72 26.384C175.024 26.616 175.232 26.972 175.344 27.452H175.176C175.328 27.012 175.588 26.668 175.956 26.42C176.324 26.164 176.752 26.036 177.24 26.036C177.688 26.036 178.056 26.124 178.344 26.3C178.632 26.468 178.848 26.728 178.992 27.08C179.136 27.424 179.208 27.86 179.208 28.388V31.472C179.208 31.664 179.152 31.816 179.04 31.928C178.936 32.032 178.788 32.084 178.596 32.084C178.404 32.084 178.256 32.032 178.152 31.928C178.048 31.816 177.996 31.664 177.996 31.472V28.448C177.996 27.952 177.908 27.588 177.732 27.356C177.564 27.124 177.284 27.008 176.892 27.008C176.452 27.008 176.104 27.16 175.848 27.464C175.592 27.768 175.464 28.188 175.464 28.724V31.472C175.464 31.664 175.412 31.816 175.308 31.928C175.204 32.032 175.056 32.084 174.864 32.084C174.672 32.084 174.52 32.032 174.408 31.928C174.304 31.816 174.252 31.664 174.252 31.472V28.448C174.252 27.952 174.168 27.588 174 27.356C173.832 27.124 173.552 27.008 173.16 27.008C172.72 27.008 172.372 27.16 172.116 27.464C171.868 27.768 171.744 28.188 171.744 28.724V31.472C171.744 31.88 171.54 32.084 171.132 32.084ZM182.775 32.108C182.367 32.108 181.999 32.028 181.671 31.868C181.351 31.708 181.099 31.492 180.915 31.22C180.731 30.948 180.639 30.64 180.639 30.296C180.639 29.864 180.747 29.524 180.963 29.276C181.187 29.02 181.551 28.84 182.055 28.736C182.567 28.624 183.255 28.568 184.119 28.568H184.683V29.312H184.131C183.555 29.312 183.099 29.34 182.763 29.396C182.427 29.452 182.187 29.548 182.043 29.684C181.907 29.812 181.839 29.992 181.839 30.224C181.839 30.528 181.943 30.776 182.151 30.968C182.359 31.152 182.647 31.244 183.015 31.244C183.311 31.244 183.571 31.176 183.795 31.04C184.019 30.896 184.195 30.704 184.323 30.464C184.459 30.224 184.527 29.948 184.527 29.636V28.256C184.527 27.8 184.431 27.472 184.239 27.272C184.047 27.072 183.731 26.972 183.291 26.972C183.035 26.972 182.767 27.004 182.487 27.068C182.215 27.132 181.931 27.24 181.635 27.392C181.499 27.456 181.383 27.476 181.287 27.452C181.191 27.428 181.115 27.376 181.059 27.296C181.003 27.208 180.971 27.116 180.963 27.02C180.963 26.916 180.987 26.816 181.035 26.72C181.091 26.624 181.183 26.552 181.311 26.504C181.663 26.336 182.011 26.216 182.355 26.144C182.699 26.072 183.023 26.036 183.327 26.036C183.863 26.036 184.303 26.12 184.647 26.288C184.999 26.456 185.259 26.712 185.427 27.056C185.595 27.4 185.679 27.844 185.679 28.388V31.472C185.679 31.664 185.631 31.816 185.535 31.928C185.439 32.032 185.299 32.084 185.115 32.084C184.939 32.084 184.799 32.032 184.695 31.928C184.591 31.816 184.539 31.664 184.539 31.472V30.692H184.647C184.583 30.988 184.463 31.244 184.287 31.46C184.119 31.668 183.907 31.828 183.651 31.94C183.395 32.052 183.103 32.108 182.775 32.108ZM190 34.268C189.568 34.268 189.148 34.224 188.74 34.136C188.34 34.048 187.976 33.904 187.648 33.704C187.528 33.64 187.448 33.56 187.408 33.464C187.368 33.376 187.356 33.284 187.372 33.188C187.396 33.092 187.44 33.008 187.504 32.936C187.568 32.864 187.644 32.816 187.732 32.792C187.828 32.768 187.928 32.784 188.032 32.84C188.384 33.032 188.716 33.16 189.028 33.224C189.348 33.296 189.644 33.332 189.916 33.332C190.476 33.332 190.896 33.188 191.176 32.9C191.456 32.62 191.596 32.204 191.596 31.652V30.428H191.704C191.584 30.868 191.332 31.216 190.948 31.472C190.564 31.728 190.12 31.856 189.616 31.856C189.088 31.856 188.628 31.736 188.236 31.496C187.844 31.248 187.54 30.908 187.324 30.476C187.108 30.036 187 29.524 187 28.94C187 28.5 187.06 28.104 187.18 27.752C187.308 27.4 187.484 27.096 187.708 26.84C187.94 26.584 188.216 26.388 188.536 26.252C188.864 26.108 189.224 26.036 189.616 26.036C190.128 26.036 190.572 26.164 190.948 26.42C191.332 26.676 191.58 27.024 191.692 27.464L191.572 27.668V26.672C191.572 26.472 191.624 26.32 191.728 26.216C191.84 26.112 191.988 26.06 192.172 26.06C192.364 26.06 192.512 26.112 192.616 26.216C192.72 26.32 192.772 26.472 192.772 26.672V31.508C192.772 32.42 192.536 33.108 192.064 33.572C191.592 34.036 190.904 34.268 190 34.268ZM189.904 30.908C190.256 30.908 190.556 30.828 190.804 30.668C191.052 30.508 191.244 30.28 191.38 29.984C191.516 29.688 191.584 29.34 191.584 28.94C191.584 28.34 191.432 27.864 191.128 27.512C190.832 27.16 190.424 26.984 189.904 26.984C189.56 26.984 189.264 27.064 189.016 27.224C188.768 27.384 188.572 27.612 188.428 27.908C188.292 28.196 188.224 28.54 188.224 28.94C188.224 29.548 188.376 30.028 188.68 30.38C188.984 30.732 189.392 30.908 189.904 30.908ZM197.221 32.108C196.581 32.108 196.029 31.988 195.565 31.748C195.109 31.5 194.753 31.152 194.497 30.704C194.249 30.248 194.125 29.708 194.125 29.084C194.125 28.476 194.249 27.944 194.497 27.488C194.745 27.032 195.085 26.676 195.517 26.42C195.949 26.164 196.441 26.036 196.993 26.036C197.401 26.036 197.765 26.104 198.085 26.24C198.405 26.368 198.677 26.56 198.901 26.816C199.133 27.064 199.305 27.368 199.417 27.728C199.537 28.088 199.597 28.492 199.597 28.94C199.597 29.076 199.557 29.18 199.477 29.252C199.397 29.316 199.277 29.348 199.117 29.348H195.085V28.604H198.781L198.577 28.772C198.577 28.372 198.517 28.032 198.397 27.752C198.285 27.472 198.113 27.26 197.881 27.116C197.657 26.964 197.377 26.888 197.041 26.888C196.665 26.888 196.345 26.976 196.081 27.152C195.825 27.328 195.629 27.572 195.493 27.884C195.357 28.196 195.289 28.56 195.289 28.976V29.048C195.289 29.752 195.453 30.284 195.781 30.644C196.117 30.996 196.601 31.172 197.233 31.172C197.473 31.172 197.725 31.14 197.989 31.076C198.261 31.012 198.517 30.904 198.757 30.752C198.893 30.672 199.013 30.636 199.117 30.644C199.229 30.652 199.317 30.688 199.381 30.752C199.453 30.816 199.497 30.896 199.513 30.992C199.529 31.088 199.513 31.188 199.465 31.292C199.417 31.388 199.333 31.476 199.213 31.556C198.941 31.74 198.625 31.88 198.265 31.976C197.905 32.064 197.557 32.108 197.221 32.108Z" fill="black"/>
<path d="M67.8963 132.09C67.4297 132.09 67.0163 132.03 66.6563 131.91C66.303 131.783 66.0063 131.6 65.7663 131.36C65.5263 131.113 65.343 130.81 65.2163 130.45C65.0963 130.083 65.0363 129.66 65.0363 129.18V125.35C65.0363 125.19 65.0763 125.073 65.1563 125C65.2363 124.92 65.3497 124.88 65.4963 124.88C65.6497 124.88 65.7663 124.92 65.8463 125C65.9263 125.073 65.9663 125.19 65.9663 125.35V129.15C65.9663 129.863 66.1297 130.397 66.4563 130.75C66.783 131.097 67.263 131.27 67.8963 131.27C68.5297 131.27 69.0097 131.097 69.3363 130.75C69.663 130.397 69.8263 129.863 69.8263 129.15V125.35C69.8263 125.19 69.8663 125.073 69.9463 125C70.0263 124.92 70.1397 124.88 70.2863 124.88C70.433 124.88 70.5463 124.92 70.6263 125C70.7063 125.073 70.7463 125.19 70.7463 125.35V129.18C70.7463 129.813 70.6363 130.347 70.4163 130.78C70.203 131.213 69.883 131.54 69.4563 131.76C69.0363 131.98 68.5163 132.09 67.8963 132.09ZM72.7308 133.87C72.5908 133.87 72.4808 133.83 72.4008 133.75C72.3208 133.67 72.2808 133.557 72.2808 133.41V127.52C72.2808 127.367 72.3208 127.253 72.4008 127.18C72.4808 127.1 72.5908 127.06 72.7308 127.06C72.8774 127.06 72.9874 127.1 73.0608 127.18C73.1408 127.253 73.1808 127.367 73.1808 127.52V128.43L73.0708 128.25C73.1774 127.883 73.3874 127.59 73.7008 127.37C74.0141 127.15 74.3908 127.04 74.8308 127.04C75.2641 127.04 75.6408 127.143 75.9608 127.35C76.2808 127.55 76.5308 127.84 76.7108 128.22C76.8908 128.593 76.9808 129.04 76.9808 129.56C76.9808 130.073 76.8908 130.523 76.7108 130.91C76.5374 131.29 76.2874 131.583 75.9608 131.79C75.6408 131.99 75.2641 132.09 74.8308 132.09C74.3974 132.09 74.0241 131.98 73.7108 131.76C73.3974 131.54 73.1874 131.25 73.0808 130.89H73.1908V133.41C73.1908 133.557 73.1508 133.67 73.0708 133.75C72.9908 133.83 72.8774 133.87 72.7308 133.87ZM74.6208 131.37C74.9074 131.37 75.1574 131.3 75.3708 131.16C75.5908 131.02 75.7608 130.817 75.8808 130.55C76.0008 130.283 76.0608 129.953 76.0608 129.56C76.0608 128.973 75.9308 128.527 75.6708 128.22C75.4108 127.913 75.0608 127.76 74.6208 127.76C74.3274 127.76 74.0708 127.83 73.8508 127.97C73.6374 128.103 73.4708 128.303 73.3508 128.57C73.2374 128.837 73.1808 129.167 73.1808 129.56C73.1808 130.147 73.3108 130.597 73.5708 130.91C73.8308 131.217 74.1808 131.37 74.6208 131.37ZM79.6799 132.09C79.1799 132.09 78.7999 131.943 78.5399 131.65C78.2799 131.35 78.1499 130.92 78.1499 130.36V125.34C78.1499 125.187 78.1899 125.073 78.2699 125C78.3499 124.92 78.4599 124.88 78.5999 124.88C78.7466 124.88 78.8599 124.92 78.9399 125C79.0199 125.073 79.0599 125.187 79.0599 125.34V130.29C79.0599 130.637 79.1299 130.897 79.2699 131.07C79.4166 131.237 79.6233 131.32 79.8899 131.32C79.9499 131.32 80.0033 131.32 80.0499 131.32C80.0966 131.313 80.1433 131.307 80.1899 131.3C80.2633 131.293 80.3166 131.313 80.3499 131.36C80.3833 131.407 80.3999 131.5 80.3999 131.64C80.3999 131.767 80.3699 131.867 80.3099 131.94C80.2566 132.007 80.1666 132.05 80.0399 132.07C79.9799 132.077 79.9199 132.08 79.8599 132.08C79.7999 132.087 79.7399 132.09 79.6799 132.09ZM83.1789 132.09C82.6989 132.09 82.2822 131.987 81.9289 131.78C81.5756 131.573 81.3022 131.28 81.1089 130.9C80.9156 130.52 80.8189 130.073 80.8189 129.56C80.8189 129.173 80.8722 128.827 80.9789 128.52C81.0922 128.207 81.2522 127.94 81.4589 127.72C81.6656 127.5 81.9122 127.333 82.1989 127.22C82.4922 127.1 82.8189 127.04 83.1789 127.04C83.6589 127.04 84.0756 127.143 84.4289 127.35C84.7822 127.557 85.0556 127.85 85.2489 128.23C85.4422 128.603 85.5389 129.047 85.5389 129.56C85.5389 129.947 85.4822 130.297 85.3689 130.61C85.2622 130.923 85.1056 131.19 84.8989 131.41C84.6922 131.63 84.4422 131.8 84.1489 131.92C83.8622 132.033 83.5389 132.09 83.1789 132.09ZM83.1789 131.37C83.4722 131.37 83.7256 131.3 83.9389 131.16C84.1589 131.02 84.3256 130.817 84.4389 130.55C84.5589 130.283 84.6189 129.953 84.6189 129.56C84.6189 128.973 84.4889 128.527 84.2289 128.22C83.9689 127.913 83.6189 127.76 83.1789 127.76C82.8922 127.76 82.6389 127.83 82.4189 127.97C82.2056 128.103 82.0389 128.303 81.9189 128.57C81.7989 128.837 81.7389 129.167 81.7389 129.56C81.7389 130.147 81.8689 130.597 82.1289 130.91C82.3956 131.217 82.7456 131.37 83.1789 131.37ZM88.2546 132.09C87.9213 132.09 87.6179 132.023 87.3446 131.89C87.0779 131.757 86.8679 131.577 86.7146 131.35C86.5679 131.123 86.4946 130.87 86.4946 130.59C86.4946 130.23 86.5846 129.947 86.7646 129.74C86.9446 129.533 87.2479 129.387 87.6746 129.3C88.1013 129.207 88.6746 129.16 89.3946 129.16H89.8646V129.74H89.4146C88.9013 129.74 88.4946 129.763 88.1946 129.81C87.9013 129.857 87.6946 129.94 87.5746 130.06C87.4546 130.173 87.3946 130.333 87.3946 130.54C87.3946 130.8 87.4846 131.013 87.6646 131.18C87.8513 131.347 88.1046 131.43 88.4246 131.43C88.6779 131.43 88.9013 131.37 89.0946 131.25C89.2879 131.123 89.4413 130.957 89.5546 130.75C89.6679 130.537 89.7246 130.293 89.7246 130.02V128.87C89.7246 128.477 89.6446 128.193 89.4846 128.02C89.3246 127.84 89.0546 127.75 88.6746 127.75C88.4546 127.75 88.2279 127.78 87.9946 127.84C87.7613 127.9 87.5179 127.993 87.2646 128.12C87.1646 128.167 87.0779 128.183 87.0046 128.17C86.9313 128.15 86.8713 128.11 86.8246 128.05C86.7846 127.983 86.7613 127.913 86.7546 127.84C86.7546 127.76 86.7713 127.683 86.8046 127.61C86.8446 127.537 86.9113 127.483 87.0046 127.45C87.2979 127.303 87.5879 127.2 87.8746 127.14C88.1679 127.073 88.4413 127.04 88.6946 127.04C89.1279 127.04 89.4846 127.11 89.7646 127.25C90.0446 127.383 90.2546 127.593 90.3946 127.88C90.5346 128.16 90.6046 128.52 90.6046 128.96V131.6C90.6046 131.753 90.5679 131.87 90.4946 131.95C90.4213 132.03 90.3146 132.07 90.1746 132.07C90.0413 132.07 89.9346 132.03 89.8546 131.95C89.7813 131.87 89.7446 131.753 89.7446 131.6V130.89H89.8346C89.7813 131.137 89.6813 131.35 89.5346 131.53C89.3879 131.71 89.2046 131.85 88.9846 131.95C88.7713 132.043 88.5279 132.09 88.2546 132.09ZM93.8966 132.09C93.47 132.09 93.0933 131.99 92.7666 131.79C92.4466 131.583 92.1966 131.29 92.0166 130.91C91.8366 130.523 91.7466 130.073 91.7466 129.56C91.7466 129.04 91.8333 128.593 92.0066 128.22C92.1866 127.84 92.4366 127.55 92.7566 127.35C93.0833 127.143 93.4633 127.04 93.8966 127.04C94.33 127.04 94.7033 127.15 95.0166 127.37C95.33 127.583 95.54 127.87 95.6466 128.23H95.5366V125.34C95.5366 125.187 95.5733 125.073 95.6466 125C95.7266 124.92 95.84 124.88 95.9866 124.88C96.1333 124.88 96.2466 124.92 96.3266 125C96.4066 125.073 96.4466 125.187 96.4466 125.34V131.6C96.4466 131.753 96.4066 131.87 96.3266 131.95C96.2466 132.03 96.1333 132.07 95.9866 132.07C95.8466 132.07 95.7366 132.03 95.6566 131.95C95.5766 131.87 95.5366 131.753 95.5366 131.6V130.69L95.6466 130.87C95.5466 131.243 95.3366 131.54 95.0166 131.76C94.7033 131.98 94.33 132.09 93.8966 132.09ZM94.1066 131.37C94.4 131.37 94.6533 131.3 94.8666 131.16C95.0866 131.02 95.2533 130.817 95.3666 130.55C95.4866 130.283 95.5466 129.953 95.5466 129.56C95.5466 128.973 95.4166 128.527 95.1566 128.22C94.8966 127.913 94.5466 127.76 94.1066 127.76C93.82 127.76 93.5666 127.83 93.3466 127.97C93.1333 128.103 92.9666 128.303 92.8466 128.57C92.7266 128.837 92.6666 129.167 92.6666 129.56C92.6666 130.147 92.7966 130.597 93.0566 130.91C93.3233 131.217 93.6733 131.37 94.1066 131.37ZM100.963 133.87C100.823 133.87 100.713 133.83 100.633 133.75C100.553 133.67 100.513 133.557 100.513 133.41V127.52C100.513 127.367 100.553 127.253 100.633 127.18C100.713 127.1 100.823 127.06 100.963 127.06C101.11 127.06 101.22 127.1 101.293 127.18C101.373 127.253 101.413 127.367 101.413 127.52V128.43L101.303 128.25C101.41 127.883 101.62 127.59 101.933 127.37C102.247 127.15 102.623 127.04 103.063 127.04C103.497 127.04 103.873 127.143 104.193 127.35C104.513 127.55 104.763 127.84 104.943 128.22C105.123 128.593 105.213 129.04 105.213 129.56C105.213 130.073 105.123 130.523 104.943 130.91C104.77 131.29 104.52 131.583 104.193 131.79C103.873 131.99 103.497 132.09 103.063 132.09C102.63 132.09 102.257 131.98 101.943 131.76C101.63 131.54 101.42 131.25 101.313 130.89H101.423V133.41C101.423 133.557 101.383 133.67 101.303 133.75C101.223 133.83 101.11 133.87 100.963 133.87ZM102.853 131.37C103.14 131.37 103.39 131.3 103.603 131.16C103.823 131.02 103.993 130.817 104.113 130.55C104.233 130.283 104.293 129.953 104.293 129.56C104.293 128.973 104.163 128.527 103.903 128.22C103.643 127.913 103.293 127.76 102.853 127.76C102.56 127.76 102.303 127.83 102.083 127.97C101.87 128.103 101.703 128.303 101.583 128.57C101.47 128.837 101.413 129.167 101.413 129.56C101.413 130.147 101.543 130.597 101.803 130.91C102.063 131.217 102.413 131.37 102.853 131.37ZM106.832 132.07C106.692 132.07 106.582 132.03 106.502 131.95C106.422 131.87 106.382 131.753 106.382 131.6V125.34C106.382 125.187 106.422 125.073 106.502 125C106.582 124.92 106.692 124.88 106.832 124.88C106.979 124.88 107.092 124.92 107.172 125C107.252 125.073 107.292 125.187 107.292 125.34V128.19H107.162C107.302 127.81 107.529 127.523 107.842 127.33C108.162 127.137 108.526 127.04 108.932 127.04C109.326 127.04 109.649 127.113 109.902 127.26C110.156 127.4 110.346 127.613 110.472 127.9C110.599 128.187 110.662 128.547 110.662 128.98V131.6C110.662 131.753 110.622 131.87 110.542 131.95C110.469 132.03 110.359 132.07 110.212 132.07C110.066 132.07 109.952 132.03 109.872 131.95C109.792 131.87 109.752 131.753 109.752 131.6V129.03C109.752 128.597 109.669 128.28 109.502 128.08C109.336 127.88 109.069 127.78 108.702 127.78C108.276 127.78 107.932 127.913 107.672 128.18C107.419 128.44 107.292 128.793 107.292 129.24V131.6C107.292 131.913 107.139 132.07 106.832 132.07ZM114.175 132.09C113.695 132.09 113.278 131.987 112.925 131.78C112.572 131.573 112.298 131.28 112.105 130.9C111.912 130.52 111.815 130.073 111.815 129.56C111.815 129.173 111.868 128.827 111.975 128.52C112.088 128.207 112.248 127.94 112.455 127.72C112.662 127.5 112.908 127.333 113.195 127.22C113.488 127.1 113.815 127.04 114.175 127.04C114.655 127.04 115.072 127.143 115.425 127.35C115.778 127.557 116.052 127.85 116.245 128.23C116.438 128.603 116.535 129.047 116.535 129.56C116.535 129.947 116.478 130.297 116.365 130.61C116.258 130.923 116.102 131.19 115.895 131.41C115.688 131.63 115.438 131.8 115.145 131.92C114.858 132.033 114.535 132.09 114.175 132.09ZM114.175 131.37C114.468 131.37 114.722 131.3 114.935 131.16C115.155 131.02 115.322 130.817 115.435 130.55C115.555 130.283 115.615 129.953 115.615 129.56C115.615 128.973 115.485 128.527 115.225 128.22C114.965 127.913 114.615 127.76 114.175 127.76C113.888 127.76 113.635 127.83 113.415 127.97C113.202 128.103 113.035 128.303 112.915 128.57C112.795 128.837 112.735 129.167 112.735 129.56C112.735 130.147 112.865 130.597 113.125 130.91C113.392 131.217 113.742 131.37 114.175 131.37ZM119.672 132.09C119.279 132.09 118.949 132.02 118.682 131.88C118.422 131.74 118.225 131.537 118.092 131.27C117.965 131.003 117.902 130.677 117.902 130.29V127.83H117.262C117.142 127.83 117.049 127.8 116.982 127.74C116.915 127.673 116.882 127.587 116.882 127.48C116.882 127.367 116.915 127.28 116.982 127.22C117.049 127.16 117.142 127.13 117.262 127.13H117.902V126.04C117.902 125.887 117.942 125.773 118.022 125.7C118.102 125.62 118.215 125.58 118.362 125.58C118.509 125.58 118.619 125.62 118.692 125.7C118.772 125.773 118.812 125.887 118.812 126.04V127.13H120.022C120.149 127.13 120.245 127.16 120.312 127.22C120.379 127.28 120.412 127.367 120.412 127.48C120.412 127.587 120.379 127.673 120.312 127.74C120.245 127.8 120.149 127.83 120.022 127.83H118.812V130.21C118.812 130.577 118.889 130.853 119.042 131.04C119.195 131.227 119.449 131.32 119.802 131.32C119.929 131.32 120.035 131.31 120.122 131.29C120.209 131.263 120.285 131.25 120.352 131.25C120.412 131.243 120.462 131.263 120.502 131.31C120.549 131.357 120.572 131.443 120.572 131.57C120.572 131.663 120.555 131.75 120.522 131.83C120.495 131.903 120.439 131.953 120.352 131.98C120.272 132.007 120.165 132.03 120.032 132.05C119.899 132.077 119.779 132.09 119.672 132.09ZM123.257 132.09C122.777 132.09 122.36 131.987 122.007 131.78C121.654 131.573 121.38 131.28 121.187 130.9C120.994 130.52 120.897 130.073 120.897 129.56C120.897 129.173 120.95 128.827 121.057 128.52C121.17 128.207 121.33 127.94 121.537 127.72C121.744 127.5 121.99 127.333 122.277 127.22C122.57 127.1 122.897 127.04 123.257 127.04C123.737 127.04 124.154 127.143 124.507 127.35C124.86 127.557 125.134 127.85 125.327 128.23C125.52 128.603 125.617 129.047 125.617 129.56C125.617 129.947 125.56 130.297 125.447 130.61C125.34 130.923 125.184 131.19 124.977 131.41C124.77 131.63 124.52 131.8 124.227 131.92C123.94 132.033 123.617 132.09 123.257 132.09ZM123.257 131.37C123.55 131.37 123.804 131.3 124.017 131.16C124.237 131.02 124.404 130.817 124.517 130.55C124.637 130.283 124.697 129.953 124.697 129.56C124.697 128.973 124.567 128.527 124.307 128.22C124.047 127.913 123.697 127.76 123.257 127.76C122.97 127.76 122.717 127.83 122.497 127.97C122.284 128.103 122.117 128.303 121.997 128.57C121.877 128.837 121.817 129.167 121.817 129.56C121.817 130.147 121.947 130.597 122.207 130.91C122.474 131.217 122.824 131.37 123.257 131.37ZM128.463 132.09C128.163 132.09 127.859 132.057 127.553 131.99C127.253 131.917 126.969 131.793 126.703 131.62C126.629 131.573 126.576 131.517 126.543 131.45C126.516 131.377 126.506 131.307 126.513 131.24C126.526 131.167 126.556 131.103 126.603 131.05C126.649 130.997 126.706 130.967 126.773 130.96C126.846 130.947 126.923 130.963 127.003 131.01C127.263 131.157 127.513 131.26 127.753 131.32C127.999 131.38 128.243 131.41 128.483 131.41C128.849 131.41 129.126 131.343 129.313 131.21C129.499 131.077 129.593 130.9 129.593 130.68C129.593 130.493 129.529 130.35 129.403 130.25C129.283 130.143 129.093 130.063 128.833 130.01L127.903 129.82C127.489 129.727 127.176 129.573 126.963 129.36C126.756 129.14 126.653 128.86 126.653 128.52C126.653 128.22 126.733 127.96 126.893 127.74C127.059 127.513 127.289 127.34 127.583 127.22C127.876 127.1 128.213 127.04 128.593 127.04C128.886 127.04 129.163 127.08 129.423 127.16C129.689 127.233 129.929 127.347 130.143 127.5C130.223 127.547 130.273 127.607 130.293 127.68C130.319 127.747 130.323 127.817 130.303 127.89C130.289 127.957 130.259 128.013 130.213 128.06C130.166 128.107 130.106 128.137 130.033 128.15C129.959 128.157 129.879 128.137 129.793 128.09C129.599 127.957 129.399 127.863 129.193 127.81C128.993 127.75 128.793 127.72 128.593 127.72C128.233 127.72 127.959 127.79 127.773 127.93C127.593 128.07 127.503 128.253 127.503 128.48C127.503 128.653 127.556 128.797 127.663 128.91C127.776 129.023 127.953 129.107 128.193 129.16L129.123 129.35C129.556 129.443 129.883 129.593 130.103 129.8C130.323 130 130.433 130.273 130.433 130.62C130.433 131.073 130.253 131.433 129.893 131.7C129.539 131.96 129.063 132.09 128.463 132.09ZM136.244 132.09C135.851 132.09 135.521 132.02 135.254 131.88C134.994 131.74 134.797 131.537 134.664 131.27C134.537 131.003 134.474 130.677 134.474 130.29V127.83H133.834C133.714 127.83 133.621 127.8 133.554 127.74C133.487 127.673 133.454 127.587 133.454 127.48C133.454 127.367 133.487 127.28 133.554 127.22C133.621 127.16 133.714 127.13 133.834 127.13H134.474V126.04C134.474 125.887 134.514 125.773 134.594 125.7C134.674 125.62 134.787 125.58 134.934 125.58C135.081 125.58 135.191 125.62 135.264 125.7C135.344 125.773 135.384 125.887 135.384 126.04V127.13H136.594C136.721 127.13 136.817 127.16 136.884 127.22C136.951 127.28 136.984 127.367 136.984 127.48C136.984 127.587 136.951 127.673 136.884 127.74C136.817 127.8 136.721 127.83 136.594 127.83H135.384V130.21C135.384 130.577 135.461 130.853 135.614 131.04C135.767 131.227 136.021 131.32 136.374 131.32C136.501 131.32 136.607 131.31 136.694 131.29C136.781 131.263 136.857 131.25 136.924 131.25C136.984 131.243 137.034 131.263 137.074 131.31C137.121 131.357 137.144 131.443 137.144 131.57C137.144 131.663 137.127 131.75 137.094 131.83C137.067 131.903 137.011 131.953 136.924 131.98C136.844 132.007 136.737 132.03 136.604 132.05C136.471 132.077 136.351 132.09 136.244 132.09ZM139.829 132.09C139.349 132.09 138.933 131.987 138.579 131.78C138.226 131.573 137.953 131.28 137.759 130.9C137.566 130.52 137.469 130.073 137.469 129.56C137.469 129.173 137.523 128.827 137.629 128.52C137.743 128.207 137.903 127.94 138.109 127.72C138.316 127.5 138.563 127.333 138.849 127.22C139.143 127.1 139.469 127.04 139.829 127.04C140.309 127.04 140.726 127.143 141.079 127.35C141.433 127.557 141.706 127.85 141.899 128.23C142.093 128.603 142.189 129.047 142.189 129.56C142.189 129.947 142.133 130.297 142.019 130.61C141.913 130.923 141.756 131.19 141.549 131.41C141.343 131.63 141.093 131.8 140.799 131.92C140.513 132.033 140.189 132.09 139.829 132.09ZM139.829 131.37C140.123 131.37 140.376 131.3 140.589 131.16C140.809 131.02 140.976 130.817 141.089 130.55C141.209 130.283 141.269 129.953 141.269 129.56C141.269 128.973 141.139 128.527 140.879 128.22C140.619 127.913 140.269 127.76 139.829 127.76C139.543 127.76 139.289 127.83 139.069 127.97C138.856 128.103 138.689 128.303 138.569 128.57C138.449 128.837 138.389 129.167 138.389 129.56C138.389 130.147 138.519 130.597 138.779 130.91C139.046 131.217 139.396 131.37 139.829 131.37ZM146.412 133.87C146.272 133.87 146.162 133.83 146.082 133.75C146.002 133.67 145.962 133.557 145.962 133.41V127.52C145.962 127.367 146.002 127.253 146.082 127.18C146.162 127.1 146.272 127.06 146.412 127.06C146.559 127.06 146.669 127.1 146.742 127.18C146.822 127.253 146.862 127.367 146.862 127.52V128.43L146.752 128.25C146.859 127.883 147.069 127.59 147.382 127.37C147.696 127.15 148.072 127.04 148.512 127.04C148.946 127.04 149.322 127.143 149.642 127.35C149.962 127.55 150.212 127.84 150.392 128.22C150.572 128.593 150.662 129.04 150.662 129.56C150.662 130.073 150.572 130.523 150.392 130.91C150.219 131.29 149.969 131.583 149.642 131.79C149.322 131.99 148.946 132.09 148.512 132.09C148.079 132.09 147.706 131.98 147.392 131.76C147.079 131.54 146.869 131.25 146.762 130.89H146.872V133.41C146.872 133.557 146.832 133.67 146.752 133.75C146.672 133.83 146.559 133.87 146.412 133.87ZM148.302 131.37C148.589 131.37 148.839 131.3 149.052 131.16C149.272 131.02 149.442 130.817 149.562 130.55C149.682 130.283 149.742 129.953 149.742 129.56C149.742 128.973 149.612 128.527 149.352 128.22C149.092 127.913 148.742 127.76 148.302 127.76C148.009 127.76 147.752 127.83 147.532 127.97C147.319 128.103 147.152 128.303 147.032 128.57C146.919 128.837 146.862 129.167 146.862 129.56C146.862 130.147 146.992 130.597 147.252 130.91C147.512 131.217 147.862 131.37 148.302 131.37ZM152.302 132.07C152.148 132.07 152.032 132.03 151.952 131.95C151.872 131.87 151.832 131.753 151.832 131.6V127.52C151.832 127.367 151.872 127.253 151.952 127.18C152.032 127.1 152.142 127.06 152.282 127.06C152.422 127.06 152.528 127.1 152.602 127.18C152.682 127.253 152.722 127.367 152.722 127.52V128.29H152.622C152.728 127.89 152.928 127.587 153.222 127.38C153.515 127.173 153.885 127.057 154.332 127.03C154.438 127.023 154.525 127.05 154.592 127.11C154.658 127.163 154.695 127.257 154.702 127.39C154.708 127.517 154.678 127.62 154.612 127.7C154.545 127.773 154.442 127.817 154.302 127.83L154.122 127.84C153.682 127.887 153.342 128.03 153.102 128.27C152.868 128.51 152.752 128.84 152.752 129.26V131.6C152.752 131.753 152.712 131.87 152.632 131.95C152.558 132.03 152.448 132.07 152.302 132.07ZM157.666 132.09C157.139 132.09 156.686 131.99 156.306 131.79C155.932 131.583 155.642 131.293 155.436 130.92C155.229 130.54 155.126 130.093 155.126 129.58C155.126 129.073 155.226 128.63 155.426 128.25C155.632 127.87 155.912 127.573 156.266 127.36C156.626 127.147 157.036 127.04 157.496 127.04C157.822 127.04 158.116 127.097 158.376 127.21C158.642 127.317 158.869 127.473 159.056 127.68C159.242 127.887 159.382 128.14 159.476 128.44C159.576 128.733 159.626 129.067 159.626 129.44C159.626 129.547 159.592 129.63 159.526 129.69C159.466 129.743 159.376 129.77 159.256 129.77H155.836V129.19H159.026L158.856 129.33C158.856 128.983 158.802 128.69 158.696 128.45C158.596 128.203 158.446 128.017 158.246 127.89C158.052 127.763 157.809 127.7 157.516 127.7C157.196 127.7 156.922 127.777 156.696 127.93C156.469 128.077 156.296 128.287 156.176 128.56C156.056 128.827 155.996 129.137 155.996 129.49V129.55C155.996 130.15 156.139 130.603 156.426 130.91C156.712 131.217 157.126 131.37 157.666 131.37C157.879 131.37 158.096 131.343 158.316 131.29C158.542 131.237 158.759 131.14 158.966 131C159.066 130.94 159.156 130.913 159.236 130.92C159.322 130.92 159.392 130.947 159.446 131C159.499 131.047 159.532 131.107 159.546 131.18C159.559 131.247 159.549 131.32 159.516 131.4C159.482 131.48 159.419 131.55 159.326 131.61C159.106 131.763 158.842 131.883 158.536 131.97C158.236 132.05 157.946 132.09 157.666 132.09ZM162.539 132.07C162.412 132.07 162.302 132.037 162.209 131.97C162.116 131.903 162.036 131.797 161.969 131.65L160.269 127.69C160.222 127.577 160.206 127.473 160.219 127.38C160.232 127.287 160.276 127.21 160.349 127.15C160.429 127.09 160.536 127.06 160.669 127.06C160.782 127.06 160.872 127.087 160.939 127.14C161.006 127.193 161.069 127.287 161.129 127.42L162.699 131.29H162.419L164.029 127.42C164.082 127.287 164.142 127.193 164.209 127.14C164.282 127.087 164.382 127.06 164.509 127.06C164.622 127.06 164.709 127.09 164.769 127.15C164.836 127.21 164.876 127.287 164.889 127.38C164.902 127.473 164.882 127.573 164.829 127.68L163.119 131.65C163.059 131.797 162.979 131.903 162.879 131.97C162.786 132.037 162.672 132.07 162.539 132.07ZM166.315 132.05C166.175 132.05 166.065 132.007 165.985 131.92C165.905 131.833 165.865 131.713 165.865 131.56V127.57C165.865 127.41 165.905 127.29 165.985 127.21C166.065 127.123 166.175 127.08 166.315 127.08C166.461 127.08 166.575 127.123 166.655 127.21C166.735 127.29 166.775 127.41 166.775 127.57V131.56C166.775 131.713 166.735 131.833 166.655 131.92C166.581 132.007 166.468 132.05 166.315 132.05ZM166.315 126C166.135 126 165.991 125.953 165.885 125.86C165.785 125.76 165.735 125.63 165.735 125.47C165.735 125.297 165.785 125.167 165.885 125.08C165.991 124.987 166.135 124.94 166.315 124.94C166.508 124.94 166.651 124.987 166.745 125.08C166.845 125.167 166.895 125.297 166.895 125.47C166.895 125.63 166.845 125.76 166.745 125.86C166.651 125.953 166.508 126 166.315 126ZM170.488 132.09C169.961 132.09 169.508 131.99 169.128 131.79C168.754 131.583 168.464 131.293 168.258 130.92C168.051 130.54 167.948 130.093 167.948 129.58C167.948 129.073 168.048 128.63 168.248 128.25C168.454 127.87 168.734 127.573 169.088 127.36C169.448 127.147 169.858 127.04 170.318 127.04C170.644 127.04 170.938 127.097 171.198 127.21C171.464 127.317 171.691 127.473 171.878 127.68C172.064 127.887 172.204 128.14 172.298 128.44C172.398 128.733 172.448 129.067 172.448 129.44C172.448 129.547 172.414 129.63 172.348 129.69C172.288 129.743 172.198 129.77 172.078 129.77H168.658V129.19H171.848L171.678 129.33C171.678 128.983 171.624 128.69 171.518 128.45C171.418 128.203 171.268 128.017 171.068 127.89C170.874 127.763 170.631 127.7 170.338 127.7C170.018 127.7 169.744 127.777 169.518 127.93C169.291 128.077 169.118 128.287 168.998 128.56C168.878 128.827 168.818 129.137 168.818 129.49V129.55C168.818 130.15 168.961 130.603 169.248 130.91C169.534 131.217 169.948 131.37 170.488 131.37C170.701 131.37 170.918 131.343 171.138 131.29C171.364 131.237 171.581 131.14 171.788 131C171.888 130.94 171.978 130.913 172.058 130.92C172.144 130.92 172.214 130.947 172.268 131C172.321 131.047 172.354 131.107 172.368 131.18C172.381 131.247 172.371 131.32 172.338 131.4C172.304 131.48 172.241 131.55 172.148 131.61C171.928 131.763 171.664 131.883 171.358 131.97C171.058 132.05 170.768 132.09 170.488 132.09ZM175.241 132.07C175.115 132.07 175.005 132.04 174.911 131.98C174.818 131.913 174.745 131.807 174.691 131.66L173.201 127.69C173.155 127.563 173.141 127.453 173.161 127.36C173.181 127.267 173.228 127.193 173.301 127.14C173.375 127.087 173.471 127.06 173.591 127.06C173.705 127.06 173.795 127.087 173.861 127.14C173.928 127.193 173.985 127.29 174.031 127.43L175.391 131.27H175.151L176.551 127.41C176.598 127.29 176.658 127.203 176.731 127.15C176.811 127.09 176.908 127.06 177.021 127.06C177.141 127.06 177.241 127.09 177.321 127.15C177.401 127.203 177.458 127.29 177.491 127.41L178.871 131.27H178.641L180.021 127.41C180.068 127.277 180.128 127.187 180.201 127.14C180.275 127.087 180.365 127.06 180.471 127.06C180.591 127.06 180.681 127.09 180.741 127.15C180.801 127.21 180.835 127.29 180.841 127.39C180.855 127.483 180.841 127.583 180.801 127.69L179.311 131.66C179.265 131.8 179.191 131.903 179.091 131.97C178.998 132.037 178.888 132.07 178.761 132.07C178.635 132.07 178.521 132.037 178.421 131.97C178.328 131.903 178.255 131.8 178.201 131.66L176.771 127.74H177.231L175.801 131.66C175.748 131.8 175.675 131.903 175.581 131.97C175.488 132.037 175.375 132.07 175.241 132.07ZM186.576 132.09C186.183 132.09 185.853 132.02 185.586 131.88C185.326 131.74 185.13 131.537 184.996 131.27C184.87 131.003 184.806 130.677 184.806 130.29V127.83H184.166C184.046 127.83 183.953 127.8 183.886 127.74C183.82 127.673 183.786 127.587 183.786 127.48C183.786 127.367 183.82 127.28 183.886 127.22C183.953 127.16 184.046 127.13 184.166 127.13H184.806V126.04C184.806 125.887 184.846 125.773 184.926 125.7C185.006 125.62 185.12 125.58 185.266 125.58C185.413 125.58 185.523 125.62 185.596 125.7C185.676 125.773 185.716 125.887 185.716 126.04V127.13H186.926C187.053 127.13 187.15 127.16 187.216 127.22C187.283 127.28 187.316 127.367 187.316 127.48C187.316 127.587 187.283 127.673 187.216 127.74C187.15 127.8 187.053 127.83 186.926 127.83H185.716V130.21C185.716 130.577 185.793 130.853 185.946 131.04C186.1 131.227 186.353 131.32 186.706 131.32C186.833 131.32 186.94 131.31 187.026 131.29C187.113 131.263 187.19 131.25 187.256 131.25C187.316 131.243 187.366 131.263 187.406 131.31C187.453 131.357 187.476 131.443 187.476 131.57C187.476 131.663 187.46 131.75 187.426 131.83C187.4 131.903 187.343 131.953 187.256 131.98C187.176 132.007 187.07 132.03 186.936 132.05C186.803 132.077 186.683 132.09 186.576 132.09ZM188.668 132.07C188.528 132.07 188.418 132.03 188.338 131.95C188.258 131.87 188.218 131.753 188.218 131.6V125.34C188.218 125.187 188.258 125.073 188.338 125C188.418 124.92 188.528 124.88 188.668 124.88C188.815 124.88 188.928 124.92 189.008 125C189.088 125.073 189.128 125.187 189.128 125.34V128.19H188.998C189.138 127.81 189.365 127.523 189.678 127.33C189.998 127.137 190.362 127.04 190.768 127.04C191.162 127.04 191.485 127.113 191.738 127.26C191.992 127.4 192.182 127.613 192.308 127.9C192.435 128.187 192.498 128.547 192.498 128.98V131.6C192.498 131.753 192.458 131.87 192.378 131.95C192.305 132.03 192.195 132.07 192.048 132.07C191.902 132.07 191.788 132.03 191.708 131.95C191.628 131.87 191.588 131.753 191.588 131.6V129.03C191.588 128.597 191.505 128.28 191.338 128.08C191.172 127.88 190.905 127.78 190.538 127.78C190.112 127.78 189.768 127.913 189.508 128.18C189.255 128.44 189.128 128.793 189.128 129.24V131.6C189.128 131.913 188.975 132.07 188.668 132.07ZM196.191 132.09C195.664 132.09 195.211 131.99 194.831 131.79C194.458 131.583 194.168 131.293 193.961 130.92C193.754 130.54 193.651 130.093 193.651 129.58C193.651 129.073 193.751 128.63 193.951 128.25C194.158 127.87 194.438 127.573 194.791 127.36C195.151 127.147 195.561 127.04 196.021 127.04C196.348 127.04 196.641 127.097 196.901 127.21C197.168 127.317 197.394 127.473 197.581 127.68C197.768 127.887 197.908 128.14 198.001 128.44C198.101 128.733 198.151 129.067 198.151 129.44C198.151 129.547 198.118 129.63 198.051 129.69C197.991 129.743 197.901 129.77 197.781 129.77H194.361V129.19H197.551L197.381 129.33C197.381 128.983 197.328 128.69 197.221 128.45C197.121 128.203 196.971 128.017 196.771 127.89C196.578 127.763 196.334 127.7 196.041 127.7C195.721 127.7 195.448 127.777 195.221 127.93C194.994 128.077 194.821 128.287 194.701 128.56C194.581 128.827 194.521 129.137 194.521 129.49V129.55C194.521 130.15 194.664 130.603 194.951 130.91C195.238 131.217 195.651 131.37 196.191 131.37C196.404 131.37 196.621 131.343 196.841 131.29C197.068 131.237 197.284 131.14 197.491 131C197.591 130.94 197.681 130.913 197.761 130.92C197.848 130.92 197.918 130.947 197.971 131C198.024 131.047 198.058 131.107 198.071 131.18C198.084 131.247 198.074 131.32 198.041 131.4C198.008 131.48 197.944 131.55 197.851 131.61C197.631 131.763 197.368 131.883 197.061 131.97C196.761 132.05 196.471 132.09 196.191 132.09ZM199.753 132.07C199.613 132.07 199.503 132.03 199.423 131.95C199.343 131.87 199.303 131.753 199.303 131.6V127.52C199.303 127.367 199.343 127.253 199.423 127.18C199.503 127.1 199.613 127.06 199.753 127.06C199.893 127.06 199.999 127.1 200.073 127.18C200.153 127.253 200.193 127.367 200.193 127.52V128.37L200.083 128.19C200.209 127.823 200.413 127.54 200.693 127.34C200.979 127.14 201.319 127.04 201.713 127.04C202.126 127.04 202.459 127.14 202.713 127.34C202.966 127.533 203.136 127.83 203.223 128.23H203.083C203.203 127.863 203.416 127.573 203.723 127.36C204.036 127.147 204.399 127.04 204.813 127.04C205.179 127.04 205.479 127.113 205.713 127.26C205.953 127.4 206.133 127.613 206.253 127.9C206.373 128.18 206.433 128.54 206.433 128.98V131.6C206.433 131.753 206.393 131.87 206.313 131.95C206.233 132.03 206.123 132.07 205.983 132.07C205.836 132.07 205.723 132.03 205.643 131.95C205.563 131.87 205.523 131.753 205.523 131.6V129.02C205.523 128.593 205.449 128.28 205.303 128.08C205.156 127.88 204.909 127.78 204.563 127.78C204.183 127.78 203.879 127.913 203.653 128.18C203.433 128.44 203.323 128.8 203.323 129.26V131.6C203.323 131.753 203.283 131.87 203.203 131.95C203.129 132.03 203.019 132.07 202.873 132.07C202.726 132.07 202.613 132.03 202.533 131.95C202.453 131.87 202.413 131.753 202.413 131.6V129.02C202.413 128.593 202.339 128.28 202.193 128.08C202.046 127.88 201.799 127.78 201.453 127.78C201.073 127.78 200.769 127.913 200.543 128.18C200.323 128.44 200.213 128.8 200.213 129.26V131.6C200.213 131.913 200.059 132.07 199.753 132.07ZM210.953 132.07C210.813 132.07 210.703 132.03 210.623 131.95C210.543 131.87 210.503 131.753 210.503 131.6V125.34C210.503 125.187 210.543 125.073 210.623 125C210.703 124.92 210.813 124.88 210.953 124.88C211.1 124.88 211.213 124.92 211.293 125C211.373 125.073 211.413 125.187 211.413 125.34V128.19H211.283C211.423 127.81 211.65 127.523 211.963 127.33C212.283 127.137 212.647 127.04 213.053 127.04C213.447 127.04 213.77 127.113 214.023 127.26C214.277 127.4 214.467 127.613 214.593 127.9C214.72 128.187 214.783 128.547 214.783 128.98V131.6C214.783 131.753 214.743 131.87 214.663 131.95C214.59 132.03 214.48 132.07 214.333 132.07C214.187 132.07 214.073 132.03 213.993 131.95C213.913 131.87 213.873 131.753 213.873 131.6V129.03C213.873 128.597 213.79 128.28 213.623 128.08C213.457 127.88 213.19 127.78 212.823 127.78C212.397 127.78 212.053 127.913 211.793 128.18C211.54 128.44 211.413 128.793 211.413 129.24V131.6C211.413 131.913 211.26 132.07 210.953 132.07ZM218.476 132.09C217.949 132.09 217.496 131.99 217.116 131.79C216.743 131.583 216.453 131.293 216.246 130.92C216.039 130.54 215.936 130.093 215.936 129.58C215.936 129.073 216.036 128.63 216.236 128.25C216.443 127.87 216.723 127.573 217.076 127.36C217.436 127.147 217.846 127.04 218.306 127.04C218.633 127.04 218.926 127.097 219.186 127.21C219.453 127.317 219.679 127.473 219.866 127.68C220.053 127.887 220.193 128.14 220.286 128.44C220.386 128.733 220.436 129.067 220.436 129.44C220.436 129.547 220.403 129.63 220.336 129.69C220.276 129.743 220.186 129.77 220.066 129.77H216.646V129.19H219.836L219.666 129.33C219.666 128.983 219.613 128.69 219.506 128.45C219.406 128.203 219.256 128.017 219.056 127.89C218.863 127.763 218.619 127.7 218.326 127.7C218.006 127.7 217.733 127.777 217.506 127.93C217.279 128.077 217.106 128.287 216.986 128.56C216.866 128.827 216.806 129.137 216.806 129.49V129.55C216.806 130.15 216.949 130.603 217.236 130.91C217.523 131.217 217.936 131.37 218.476 131.37C218.689 131.37 218.906 131.343 219.126 131.29C219.353 131.237 219.569 131.14 219.776 131C219.876 130.94 219.966 130.913 220.046 130.92C220.133 130.92 220.203 130.947 220.256 131C220.309 131.047 220.343 131.107 220.356 131.18C220.369 131.247 220.359 131.32 220.326 131.4C220.293 131.48 220.229 131.55 220.136 131.61C219.916 131.763 219.653 131.883 219.346 131.97C219.046 132.05 218.756 132.09 218.476 132.09ZM222.038 132.07C221.885 132.07 221.768 132.03 221.688 131.95C221.608 131.87 221.568 131.753 221.568 131.6V127.52C221.568 127.367 221.608 127.253 221.688 127.18C221.768 127.1 221.878 127.06 222.018 127.06C222.158 127.06 222.265 127.1 222.338 127.18C222.418 127.253 222.458 127.367 222.458 127.52V128.29H222.358C222.465 127.89 222.665 127.587 222.958 127.38C223.251 127.173 223.621 127.057 224.068 127.03C224.175 127.023 224.261 127.05 224.328 127.11C224.395 127.163 224.431 127.257 224.438 127.39C224.445 127.517 224.415 127.62 224.348 127.7C224.281 127.773 224.178 127.817 224.038 127.83L223.858 127.84C223.418 127.887 223.078 128.03 222.838 128.27C222.605 128.51 222.488 128.84 222.488 129.26V131.6C222.488 131.753 222.448 131.87 222.368 131.95C222.295 132.03 222.185 132.07 222.038 132.07ZM227.402 132.09C226.875 132.09 226.422 131.99 226.042 131.79C225.669 131.583 225.379 131.293 225.172 130.92C224.965 130.54 224.862 130.093 224.862 129.58C224.862 129.073 224.962 128.63 225.162 128.25C225.369 127.87 225.649 127.573 226.002 127.36C226.362 127.147 226.772 127.04 227.232 127.04C227.559 127.04 227.852 127.097 228.112 127.21C228.379 127.317 228.605 127.473 228.792 127.68C228.979 127.887 229.119 128.14 229.212 128.44C229.312 128.733 229.362 129.067 229.362 129.44C229.362 129.547 229.329 129.63 229.262 129.69C229.202 129.743 229.112 129.77 228.992 129.77H225.572V129.19H228.762L228.592 129.33C228.592 128.983 228.539 128.69 228.432 128.45C228.332 128.203 228.182 128.017 227.982 127.89C227.789 127.763 227.545 127.7 227.252 127.7C226.932 127.7 226.659 127.777 226.432 127.93C226.205 128.077 226.032 128.287 225.912 128.56C225.792 128.827 225.732 129.137 225.732 129.49V129.55C225.732 130.15 225.875 130.603 226.162 130.91C226.449 131.217 226.862 131.37 227.402 131.37C227.615 131.37 227.832 131.343 228.052 131.29C228.279 131.237 228.495 131.14 228.702 131C228.802 130.94 228.892 130.913 228.972 130.92C229.059 130.92 229.129 130.947 229.182 131C229.235 131.047 229.269 131.107 229.282 131.18C229.295 131.247 229.285 131.32 229.252 131.4C229.219 131.48 229.155 131.55 229.062 131.61C228.842 131.763 228.579 131.883 228.272 131.97C227.972 132.05 227.682 132.09 227.402 132.09Z" fill="black"/>
<path d="M147.921 108.659H132.955C132.702 108.659 132.459 108.558 132.28 108.379C132.101 108.2 132 107.957 132 107.703V80.9553C132 80.7019 132.101 80.4589 132.28 80.2798C132.459 80.1006 132.702 80 132.955 80H159.703C159.957 80 160.2 80.1006 160.379 80.2798C160.558 80.4589 160.659 80.7019 160.659 80.9553V95.9214" stroke="#444444" stroke-width="2.38822" stroke-linecap="round" stroke-linejoin="round"/>
<path d="M132 100.698L143.145 95.9215L151.902 99.9019M152.698 105.474H157.474M157.474 105.474H162.251M157.474 105.474V100.698M157.474 105.474V110.251M152.698 91.1451C151.853 91.1451 151.043 90.8096 150.446 90.2124C149.849 89.6152 149.514 88.8053 149.514 87.9608C149.514 87.1163 149.849 86.3063 150.446 85.7091C151.043 85.112 151.853 84.7765 152.698 84.7765C153.542 84.7765 154.352 85.112 154.95 85.7091C155.547 86.3063 155.882 87.1163 155.882 87.9608C155.882 88.8053 155.547 89.6152 154.95 90.2124C154.352 90.8096 153.542 91.1451 152.698 91.1451Z" stroke="#444444" stroke-width="2.38822" stroke-linecap="round" stroke-linejoin="round"/>
<rect x="92" y="148" width="110" height="22" rx="11" fill="#346AF2"/>
<path d="M104.88 162.09C104.616 162.09 104.352 162.069 104.088 162.027C103.824 161.991 103.575 161.934 103.341 161.856C103.107 161.772 102.897 161.67 102.711 161.55C102.603 161.478 102.528 161.391 102.486 161.289C102.444 161.187 102.429 161.088 102.441 160.992C102.459 160.89 102.498 160.803 102.558 160.731C102.624 160.653 102.705 160.605 102.801 160.587C102.897 160.569 103.002 160.596 103.116 160.668C103.38 160.824 103.659 160.938 103.953 161.01C104.247 161.082 104.556 161.118 104.88 161.118C105.354 161.118 105.699 161.04 105.915 160.884C106.131 160.722 106.239 160.515 106.239 160.263C106.239 160.053 106.161 159.888 106.005 159.768C105.855 159.648 105.594 159.549 105.222 159.471L104.232 159.264C103.662 159.144 103.236 158.943 102.954 158.661C102.678 158.373 102.54 157.995 102.54 157.527C102.54 157.233 102.6 156.966 102.72 156.726C102.84 156.486 103.008 156.279 103.224 156.105C103.446 155.931 103.707 155.799 104.007 155.709C104.313 155.613 104.649 155.565 105.015 155.565C105.375 155.565 105.717 155.61 106.041 155.7C106.365 155.79 106.656 155.922 106.914 156.096C107.01 156.162 107.073 156.243 107.103 156.339C107.139 156.435 107.148 156.531 107.13 156.627C107.112 156.717 107.07 156.795 107.004 156.861C106.938 156.927 106.854 156.966 106.752 156.978C106.656 156.99 106.545 156.96 106.419 156.888C106.197 156.762 105.972 156.672 105.744 156.618C105.516 156.564 105.27 156.537 105.006 156.537C104.73 156.537 104.493 156.576 104.295 156.654C104.097 156.732 103.944 156.843 103.836 156.987C103.734 157.125 103.683 157.29 103.683 157.482C103.683 157.698 103.755 157.872 103.899 158.004C104.043 158.13 104.289 158.229 104.637 158.301L105.618 158.508C106.212 158.634 106.653 158.832 106.941 159.102C107.235 159.372 107.382 159.732 107.382 160.182C107.382 160.47 107.322 160.731 107.202 160.965C107.088 161.199 106.92 161.4 106.698 161.568C106.482 161.736 106.221 161.865 105.915 161.955C105.609 162.045 105.264 162.09 104.88 162.09ZM110.432 162.09C109.934 162.09 109.505 161.997 109.145 161.811C108.785 161.625 108.506 161.361 108.308 161.019C108.116 160.677 108.02 160.272 108.02 159.804C108.02 159.348 108.113 158.949 108.299 158.607C108.491 158.265 108.752 157.998 109.082 157.806C109.418 157.608 109.799 157.509 110.225 157.509C110.537 157.509 110.816 157.56 111.062 157.662C111.314 157.764 111.527 157.911 111.701 158.103C111.881 158.295 112.016 158.529 112.106 158.805C112.202 159.075 112.25 159.381 112.25 159.723C112.25 159.831 112.211 159.915 112.133 159.975C112.061 160.029 111.956 160.056 111.818 160.056H108.929V159.408H111.458L111.314 159.543C111.314 159.267 111.272 159.036 111.188 158.85C111.11 158.664 110.993 158.523 110.837 158.427C110.687 158.325 110.498 158.274 110.27 158.274C110.018 158.274 109.802 158.334 109.622 158.454C109.448 158.568 109.313 158.733 109.217 158.949C109.127 159.159 109.082 159.411 109.082 159.705V159.768C109.082 160.26 109.196 160.629 109.424 160.875C109.658 161.115 110 161.235 110.45 161.235C110.606 161.235 110.78 161.217 110.972 161.181C111.17 161.139 111.356 161.07 111.53 160.974C111.656 160.902 111.767 160.872 111.863 160.884C111.959 160.89 112.034 160.923 112.088 160.983C112.148 161.043 112.184 161.118 112.196 161.208C112.208 161.292 112.19 161.379 112.142 161.469C112.1 161.559 112.025 161.637 111.917 161.703C111.707 161.835 111.464 161.934 111.188 162C110.918 162.06 110.666 162.09 110.432 162.09ZM114.644 162.09C114.146 162.09 113.771 161.949 113.519 161.667C113.267 161.379 113.141 160.959 113.141 160.407V156.15C113.141 155.964 113.189 155.823 113.285 155.727C113.381 155.631 113.519 155.583 113.699 155.583C113.879 155.583 114.017 155.631 114.113 155.727C114.215 155.823 114.266 155.964 114.266 156.15V160.353C114.266 160.629 114.323 160.833 114.437 160.965C114.557 161.097 114.725 161.163 114.941 161.163C114.989 161.163 115.034 161.163 115.076 161.163C115.118 161.157 115.16 161.151 115.202 161.145C115.286 161.133 115.343 161.157 115.373 161.217C115.403 161.271 115.418 161.385 115.418 161.559C115.418 161.709 115.388 161.826 115.328 161.91C115.268 161.994 115.169 162.045 115.031 162.063C114.971 162.069 114.908 162.075 114.842 162.081C114.776 162.087 114.71 162.09 114.644 162.09ZM118.14 162.09C117.642 162.09 117.213 161.997 116.853 161.811C116.493 161.625 116.214 161.361 116.016 161.019C115.824 160.677 115.728 160.272 115.728 159.804C115.728 159.348 115.821 158.949 116.007 158.607C116.199 158.265 116.46 157.998 116.79 157.806C117.126 157.608 117.507 157.509 117.933 157.509C118.245 157.509 118.524 157.56 118.77 157.662C119.022 157.764 119.235 157.911 119.409 158.103C119.589 158.295 119.724 158.529 119.814 158.805C119.91 159.075 119.958 159.381 119.958 159.723C119.958 159.831 119.919 159.915 119.841 159.975C119.769 160.029 119.664 160.056 119.526 160.056H116.637V159.408H119.166L119.022 159.543C119.022 159.267 118.98 159.036 118.896 158.85C118.818 158.664 118.701 158.523 118.545 158.427C118.395 158.325 118.206 158.274 117.978 158.274C117.726 158.274 117.51 158.334 117.33 158.454C117.156 158.568 117.021 158.733 116.925 158.949C116.835 159.159 116.79 159.411 116.79 159.705V159.768C116.79 160.26 116.904 160.629 117.132 160.875C117.366 161.115 117.708 161.235 118.158 161.235C118.314 161.235 118.488 161.217 118.68 161.181C118.878 161.139 119.064 161.07 119.238 160.974C119.364 160.902 119.475 160.872 119.571 160.884C119.667 160.89 119.742 160.923 119.796 160.983C119.856 161.043 119.892 161.118 119.904 161.208C119.916 161.292 119.898 161.379 119.85 161.469C119.808 161.559 119.733 161.637 119.625 161.703C119.415 161.835 119.172 161.934 118.896 162C118.626 162.06 118.374 162.09 118.14 162.09ZM122.883 162.09C122.421 162.09 122.019 161.997 121.677 161.811C121.335 161.619 121.071 161.349 120.885 161.001C120.699 160.653 120.606 160.245 120.606 159.777C120.606 159.423 120.657 159.108 120.759 158.832C120.867 158.55 121.02 158.313 121.218 158.121C121.416 157.923 121.656 157.773 121.938 157.671C122.22 157.563 122.535 157.509 122.883 157.509C123.081 157.509 123.294 157.536 123.522 157.59C123.756 157.644 123.975 157.734 124.179 157.86C124.275 157.92 124.338 157.992 124.368 158.076C124.398 158.16 124.404 158.247 124.386 158.337C124.368 158.421 124.329 158.496 124.269 158.562C124.215 158.622 124.146 158.661 124.062 158.679C123.978 158.691 123.885 158.67 123.783 158.616C123.651 158.538 123.516 158.481 123.378 158.445C123.24 158.403 123.108 158.382 122.982 158.382C122.784 158.382 122.61 158.415 122.46 158.481C122.31 158.541 122.181 158.631 122.073 158.751C121.971 158.865 121.893 159.009 121.839 159.183C121.785 159.357 121.758 159.558 121.758 159.786C121.758 160.23 121.863 160.581 122.073 160.839C122.289 161.091 122.592 161.217 122.982 161.217C123.108 161.217 123.237 161.199 123.369 161.163C123.507 161.127 123.645 161.07 123.783 160.992C123.885 160.938 123.975 160.92 124.053 160.938C124.137 160.956 124.206 160.998 124.26 161.064C124.314 161.124 124.347 161.199 124.359 161.289C124.371 161.373 124.359 161.457 124.323 161.541C124.293 161.625 124.233 161.694 124.143 161.748C123.945 161.868 123.735 161.955 123.513 162.009C123.291 162.063 123.081 162.09 122.883 162.09ZM127.127 162.09C126.737 162.09 126.41 162.024 126.146 161.892C125.888 161.76 125.696 161.568 125.57 161.316C125.444 161.058 125.381 160.74 125.381 160.362V158.445H124.913C124.769 158.445 124.658 158.409 124.58 158.337C124.502 158.259 124.463 158.154 124.463 158.022C124.463 157.884 124.502 157.779 124.58 157.707C124.658 157.635 124.769 157.599 124.913 157.599H125.381V156.78C125.381 156.594 125.429 156.453 125.525 156.357C125.627 156.261 125.768 156.213 125.948 156.213C126.128 156.213 126.266 156.261 126.362 156.357C126.458 156.453 126.506 156.594 126.506 156.78V157.599H127.46C127.604 157.599 127.715 157.635 127.793 157.707C127.871 157.779 127.91 157.884 127.91 158.022C127.91 158.154 127.871 158.259 127.793 158.337C127.715 158.409 127.604 158.445 127.46 158.445H126.506V160.299C126.506 160.587 126.569 160.803 126.695 160.947C126.821 161.091 127.025 161.163 127.307 161.163C127.409 161.163 127.499 161.154 127.577 161.136C127.655 161.118 127.724 161.106 127.784 161.1C127.856 161.094 127.916 161.118 127.964 161.172C128.012 161.22 128.036 161.322 128.036 161.478C128.036 161.598 128.015 161.706 127.973 161.802C127.937 161.892 127.868 161.955 127.766 161.991C127.688 162.015 127.586 162.036 127.46 162.054C127.334 162.078 127.223 162.09 127.127 162.09ZM131.873 162.072C131.693 162.072 131.552 162.024 131.45 161.928C131.354 161.826 131.306 161.682 131.306 161.496V158.445H130.892C130.748 158.445 130.637 158.409 130.559 158.337C130.481 158.259 130.442 158.154 130.442 158.022C130.442 157.884 130.481 157.779 130.559 157.707C130.637 157.635 130.748 157.599 130.892 157.599H131.63L131.306 157.896V157.59C131.306 156.972 131.462 156.51 131.774 156.204C132.086 155.892 132.536 155.709 133.124 155.655L133.43 155.628C133.55 155.616 133.646 155.637 133.718 155.691C133.79 155.739 133.838 155.805 133.862 155.889C133.886 155.967 133.889 156.048 133.871 156.132C133.853 156.216 133.814 156.291 133.754 156.357C133.7 156.417 133.628 156.45 133.538 156.456L133.412 156.465C133.07 156.489 132.821 156.576 132.665 156.726C132.509 156.876 132.431 157.104 132.431 157.41V157.743L132.287 157.599H133.196C133.34 157.599 133.451 157.635 133.529 157.707C133.607 157.779 133.646 157.884 133.646 158.022C133.646 158.154 133.607 158.259 133.529 158.337C133.451 158.409 133.34 158.445 133.196 158.445H132.431V161.496C132.431 161.88 132.245 162.072 131.873 162.072ZM134.863 162.072C134.677 162.072 134.533 162.024 134.431 161.928C134.335 161.826 134.287 161.682 134.287 161.496V158.094C134.287 157.908 134.335 157.767 134.431 157.671C134.527 157.575 134.662 157.527 134.836 157.527C135.01 157.527 135.145 157.575 135.241 157.671C135.337 157.767 135.385 157.908 135.385 158.094V158.661H135.295C135.379 158.301 135.544 158.028 135.79 157.842C136.036 157.656 136.363 157.545 136.771 157.509C136.897 157.497 136.996 157.53 137.068 157.608C137.146 157.68 137.191 157.794 137.203 157.95C137.215 158.1 137.179 158.223 137.095 158.319C137.017 158.409 136.897 158.463 136.735 158.481L136.537 158.499C136.171 158.535 135.895 158.649 135.709 158.841C135.523 159.027 135.43 159.291 135.43 159.633V161.496C135.43 161.682 135.382 161.826 135.286 161.928C135.19 162.024 135.049 162.072 134.863 162.072ZM139.748 162.09C139.292 162.09 138.896 161.997 138.56 161.811C138.224 161.625 137.963 161.361 137.777 161.019C137.591 160.671 137.498 160.263 137.498 159.795C137.498 159.441 137.549 159.126 137.651 158.85C137.759 158.568 137.912 158.328 138.11 158.13C138.308 157.926 138.545 157.773 138.821 157.671C139.097 157.563 139.406 157.509 139.748 157.509C140.204 157.509 140.6 157.602 140.936 157.788C141.272 157.974 141.533 158.238 141.719 158.58C141.905 158.922 141.998 159.327 141.998 159.795C141.998 160.149 141.944 160.467 141.836 160.749C141.734 161.031 141.584 161.274 141.386 161.478C141.188 161.676 140.951 161.829 140.675 161.937C140.399 162.039 140.09 162.09 139.748 162.09ZM139.748 161.235C139.97 161.235 140.165 161.181 140.333 161.073C140.501 160.965 140.63 160.806 140.72 160.596C140.816 160.38 140.864 160.113 140.864 159.795C140.864 159.315 140.762 158.958 140.558 158.724C140.354 158.484 140.084 158.364 139.748 158.364C139.526 158.364 139.331 158.418 139.163 158.526C138.995 158.628 138.863 158.787 138.767 159.003C138.677 159.213 138.632 159.477 138.632 159.795C138.632 160.269 138.734 160.629 138.938 160.875C139.142 161.115 139.412 161.235 139.748 161.235ZM143.503 162.072C143.323 162.072 143.185 162.024 143.089 161.928C142.993 161.826 142.945 161.682 142.945 161.496V158.094C142.945 157.908 142.993 157.767 143.089 157.671C143.185 157.575 143.32 157.527 143.494 157.527C143.668 157.527 143.803 157.575 143.899 157.671C143.995 157.767 144.043 157.908 144.043 158.094V158.751L143.944 158.481C144.064 158.181 144.25 157.944 144.502 157.77C144.754 157.596 145.054 157.509 145.402 157.509C145.756 157.509 146.047 157.593 146.275 157.761C146.503 157.929 146.662 158.187 146.752 158.535H146.626C146.746 158.217 146.944 157.968 147.22 157.788C147.496 157.602 147.814 157.509 148.174 157.509C148.51 157.509 148.786 157.575 149.002 157.707C149.224 157.839 149.389 158.04 149.497 158.31C149.605 158.574 149.659 158.91 149.659 159.318V161.496C149.659 161.682 149.608 161.826 149.506 161.928C149.41 162.024 149.272 162.072 149.092 162.072C148.912 162.072 148.774 162.024 148.678 161.928C148.582 161.826 148.534 161.682 148.534 161.496V159.363C148.534 159.027 148.477 158.781 148.363 158.625C148.255 158.469 148.069 158.391 147.805 158.391C147.511 158.391 147.28 158.496 147.112 158.706C146.944 158.91 146.86 159.195 146.86 159.561V161.496C146.86 161.682 146.812 161.826 146.716 161.928C146.62 162.024 146.482 162.072 146.302 162.072C146.122 162.072 145.981 162.024 145.879 161.928C145.783 161.826 145.735 161.682 145.735 161.496V159.363C145.735 159.027 145.678 158.781 145.564 158.625C145.456 158.469 145.273 158.391 145.015 158.391C144.721 158.391 144.49 158.496 144.322 158.706C144.154 158.91 144.07 159.195 144.07 159.561V161.496C144.07 161.88 143.881 162.072 143.503 162.072ZM155.297 162.09C154.835 162.09 154.433 161.997 154.091 161.811C153.749 161.619 153.485 161.349 153.299 161.001C153.113 160.653 153.02 160.245 153.02 159.777C153.02 159.423 153.071 159.108 153.173 158.832C153.281 158.55 153.434 158.313 153.632 158.121C153.83 157.923 154.07 157.773 154.352 157.671C154.634 157.563 154.949 157.509 155.297 157.509C155.495 157.509 155.708 157.536 155.936 157.59C156.17 157.644 156.389 157.734 156.593 157.86C156.689 157.92 156.752 157.992 156.782 158.076C156.812 158.16 156.818 158.247 156.8 158.337C156.782 158.421 156.743 158.496 156.683 158.562C156.629 158.622 156.56 158.661 156.476 158.679C156.392 158.691 156.299 158.67 156.197 158.616C156.065 158.538 155.93 158.481 155.792 158.445C155.654 158.403 155.522 158.382 155.396 158.382C155.198 158.382 155.024 158.415 154.874 158.481C154.724 158.541 154.595 158.631 154.487 158.751C154.385 158.865 154.307 159.009 154.253 159.183C154.199 159.357 154.172 159.558 154.172 159.786C154.172 160.23 154.277 160.581 154.487 160.839C154.703 161.091 155.006 161.217 155.396 161.217C155.522 161.217 155.651 161.199 155.783 161.163C155.921 161.127 156.059 161.07 156.197 160.992C156.299 160.938 156.389 160.92 156.467 160.938C156.551 160.956 156.62 160.998 156.674 161.064C156.728 161.124 156.761 161.199 156.773 161.289C156.785 161.373 156.773 161.457 156.737 161.541C156.707 161.625 156.647 161.694 156.557 161.748C156.359 161.868 156.149 161.955 155.927 162.009C155.705 162.063 155.495 162.09 155.297 162.09ZM159.427 162.09C158.971 162.09 158.575 161.997 158.239 161.811C157.903 161.625 157.642 161.361 157.456 161.019C157.27 160.671 157.177 160.263 157.177 159.795C157.177 159.441 157.228 159.126 157.33 158.85C157.438 158.568 157.591 158.328 157.789 158.13C157.987 157.926 158.224 157.773 158.5 157.671C158.776 157.563 159.085 157.509 159.427 157.509C159.883 157.509 160.279 157.602 160.615 157.788C160.951 157.974 161.212 158.238 161.398 158.58C161.584 158.922 161.677 159.327 161.677 159.795C161.677 160.149 161.623 160.467 161.515 160.749C161.413 161.031 161.263 161.274 161.065 161.478C160.867 161.676 160.63 161.829 160.354 161.937C160.078 162.039 159.769 162.09 159.427 162.09ZM159.427 161.235C159.649 161.235 159.844 161.181 160.012 161.073C160.18 160.965 160.309 160.806 160.399 160.596C160.495 160.38 160.543 160.113 160.543 159.795C160.543 159.315 160.441 158.958 160.237 158.724C160.033 158.484 159.763 158.364 159.427 158.364C159.205 158.364 159.01 158.418 158.842 158.526C158.674 158.628 158.542 158.787 158.446 159.003C158.356 159.213 158.311 159.477 158.311 159.795C158.311 160.269 158.413 160.629 158.617 160.875C158.821 161.115 159.091 161.235 159.427 161.235ZM163.182 162.072C163.002 162.072 162.864 162.024 162.768 161.928C162.672 161.826 162.624 161.682 162.624 161.496V158.094C162.624 157.908 162.672 157.767 162.768 157.671C162.864 157.575 162.999 157.527 163.173 157.527C163.347 157.527 163.482 157.575 163.578 157.671C163.674 157.767 163.722 157.908 163.722 158.094V158.751L163.623 158.481C163.743 158.181 163.929 157.944 164.181 157.77C164.433 157.596 164.733 157.509 165.081 157.509C165.435 157.509 165.726 157.593 165.954 157.761C166.182 157.929 166.341 158.187 166.431 158.535H166.305C166.425 158.217 166.623 157.968 166.899 157.788C167.175 157.602 167.493 157.509 167.853 157.509C168.189 157.509 168.465 157.575 168.681 157.707C168.903 157.839 169.068 158.04 169.176 158.31C169.284 158.574 169.338 158.91 169.338 159.318V161.496C169.338 161.682 169.287 161.826 169.185 161.928C169.089 162.024 168.951 162.072 168.771 162.072C168.591 162.072 168.453 162.024 168.357 161.928C168.261 161.826 168.213 161.682 168.213 161.496V159.363C168.213 159.027 168.156 158.781 168.042 158.625C167.934 158.469 167.748 158.391 167.484 158.391C167.19 158.391 166.959 158.496 166.791 158.706C166.623 158.91 166.539 159.195 166.539 159.561V161.496C166.539 161.682 166.491 161.826 166.395 161.928C166.299 162.024 166.161 162.072 165.981 162.072C165.801 162.072 165.66 162.024 165.558 161.928C165.462 161.826 165.414 161.682 165.414 161.496V159.363C165.414 159.027 165.357 158.781 165.243 158.625C165.135 158.469 164.952 158.391 164.694 158.391C164.4 158.391 164.169 158.496 164.001 158.706C163.833 158.91 163.749 159.195 163.749 159.561V161.496C163.749 161.88 163.56 162.072 163.182 162.072ZM171.056 163.692C170.876 163.692 170.738 163.644 170.642 163.548C170.546 163.452 170.498 163.311 170.498 163.125V158.094C170.498 157.908 170.546 157.767 170.642 157.671C170.738 157.575 170.873 157.527 171.047 157.527C171.227 157.527 171.365 157.575 171.461 157.671C171.557 157.767 171.605 157.908 171.605 158.094V158.796L171.506 158.526C171.596 158.22 171.779 157.974 172.055 157.788C172.337 157.602 172.664 157.509 173.036 157.509C173.42 157.509 173.756 157.602 174.044 157.788C174.338 157.974 174.566 158.238 174.728 158.58C174.89 158.916 174.971 159.321 174.971 159.795C174.971 160.263 174.89 160.671 174.728 161.019C174.566 161.361 174.341 161.625 174.053 161.811C173.765 161.997 173.426 162.09 173.036 162.09C172.67 162.09 172.349 162 172.073 161.82C171.797 161.634 171.611 161.394 171.515 161.1H171.623V163.125C171.623 163.311 171.572 163.452 171.47 163.548C171.374 163.644 171.236 163.692 171.056 163.692ZM172.721 161.235C172.943 161.235 173.138 161.181 173.306 161.073C173.474 160.965 173.603 160.806 173.693 160.596C173.789 160.38 173.837 160.113 173.837 159.795C173.837 159.315 173.735 158.958 173.531 158.724C173.327 158.484 173.057 158.364 172.721 158.364C172.499 158.364 172.304 158.418 172.136 158.526C171.968 158.628 171.836 158.787 171.74 159.003C171.65 159.213 171.605 159.477 171.605 159.795C171.605 160.269 171.707 160.629 171.911 160.875C172.115 161.115 172.385 161.235 172.721 161.235ZM177.488 162.09C177.122 162.09 176.819 162.024 176.579 161.892C176.339 161.754 176.159 161.55 176.039 161.28C175.925 161.01 175.868 160.674 175.868 160.272V158.094C175.868 157.902 175.916 157.761 176.012 157.671C176.108 157.575 176.246 157.527 176.426 157.527C176.606 157.527 176.744 157.575 176.84 157.671C176.942 157.761 176.993 157.902 176.993 158.094V160.29C176.993 160.602 177.056 160.833 177.182 160.983C177.308 161.133 177.509 161.208 177.785 161.208C178.085 161.208 178.331 161.106 178.523 160.902C178.715 160.692 178.811 160.416 178.811 160.074V158.094C178.811 157.902 178.859 157.761 178.955 157.671C179.051 157.575 179.189 157.527 179.369 157.527C179.549 157.527 179.687 157.575 179.783 157.671C179.885 157.761 179.936 157.902 179.936 158.094V161.496C179.936 161.88 179.753 162.072 179.387 162.072C179.213 162.072 179.078 162.024 178.982 161.928C178.886 161.826 178.838 161.682 178.838 161.496V160.812L178.964 161.082C178.838 161.406 178.646 161.655 178.388 161.829C178.136 162.003 177.836 162.09 177.488 162.09ZM183.122 162.09C182.732 162.09 182.405 162.024 182.141 161.892C181.883 161.76 181.691 161.568 181.565 161.316C181.439 161.058 181.376 160.74 181.376 160.362V158.445H180.908C180.764 158.445 180.653 158.409 180.575 158.337C180.497 158.259 180.458 158.154 180.458 158.022C180.458 157.884 180.497 157.779 180.575 157.707C180.653 157.635 180.764 157.599 180.908 157.599H181.376V156.78C181.376 156.594 181.424 156.453 181.52 156.357C181.622 156.261 181.763 156.213 181.943 156.213C182.123 156.213 182.261 156.261 182.357 156.357C182.453 156.453 182.501 156.594 182.501 156.78V157.599H183.455C183.599 157.599 183.71 157.635 183.788 157.707C183.866 157.779 183.905 157.884 183.905 158.022C183.905 158.154 183.866 158.259 183.788 158.337C183.71 158.409 183.599 158.445 183.455 158.445H182.501V160.299C182.501 160.587 182.564 160.803 182.69 160.947C182.816 161.091 183.02 161.163 183.302 161.163C183.404 161.163 183.494 161.154 183.572 161.136C183.65 161.118 183.719 161.106 183.779 161.1C183.851 161.094 183.911 161.118 183.959 161.172C184.007 161.22 184.031 161.322 184.031 161.478C184.031 161.598 184.01 161.706 183.968 161.802C183.932 161.892 183.863 161.955 183.761 161.991C183.683 162.015 183.581 162.036 183.455 162.054C183.329 162.078 183.218 162.09 183.122 162.09ZM186.686 162.09C186.188 162.09 185.759 161.997 185.399 161.811C185.039 161.625 184.76 161.361 184.562 161.019C184.37 160.677 184.274 160.272 184.274 159.804C184.274 159.348 184.367 158.949 184.553 158.607C184.745 158.265 185.006 157.998 185.336 157.806C185.672 157.608 186.053 157.509 186.479 157.509C186.791 157.509 187.07 157.56 187.316 157.662C187.568 157.764 187.781 157.911 187.955 158.103C188.135 158.295 188.27 158.529 188.36 158.805C188.456 159.075 188.504 159.381 188.504 159.723C188.504 159.831 188.465 159.915 188.387 159.975C188.315 160.029 188.21 160.056 188.072 160.056H185.183V159.408H187.712L187.568 159.543C187.568 159.267 187.526 159.036 187.442 158.85C187.364 158.664 187.247 158.523 187.091 158.427C186.941 158.325 186.752 158.274 186.524 158.274C186.272 158.274 186.056 158.334 185.876 158.454C185.702 158.568 185.567 158.733 185.471 158.949C185.381 159.159 185.336 159.411 185.336 159.705V159.768C185.336 160.26 185.45 160.629 185.678 160.875C185.912 161.115 186.254 161.235 186.704 161.235C186.86 161.235 187.034 161.217 187.226 161.181C187.424 161.139 187.61 161.07 187.784 160.974C187.91 160.902 188.021 160.872 188.117 160.884C188.213 160.89 188.288 160.923 188.342 160.983C188.402 161.043 188.438 161.118 188.45 161.208C188.462 161.292 188.444 161.379 188.396 161.469C188.354 161.559 188.279 161.637 188.171 161.703C187.961 161.835 187.718 161.934 187.442 162C187.172 162.06 186.92 162.09 186.686 162.09ZM189.971 162.072C189.785 162.072 189.641 162.024 189.539 161.928C189.443 161.826 189.395 161.682 189.395 161.496V158.094C189.395 157.908 189.443 157.767 189.539 157.671C189.635 157.575 189.77 157.527 189.944 157.527C190.118 157.527 190.253 157.575 190.349 157.671C190.445 157.767 190.493 157.908 190.493 158.094V158.661H190.403C190.487 158.301 190.652 158.028 190.898 157.842C191.144 157.656 191.471 157.545 191.879 157.509C192.005 157.497 192.104 157.53 192.176 157.608C192.254 157.68 192.299 157.794 192.311 157.95C192.323 158.1 192.287 158.223 192.203 158.319C192.125 158.409 192.005 158.463 191.843 158.481L191.645 158.499C191.279 158.535 191.003 158.649 190.817 158.841C190.631 159.027 190.538 159.291 190.538 159.633V161.496C190.538 161.682 190.49 161.826 190.394 161.928C190.298 162.024 190.157 162.072 189.971 162.072Z" fill="white"/>
<line x1="1" y1="47.7928" x2="294" y2="47.7928" stroke="#D9D9D9" stroke-width="0.414394"/>
</svg>
