<svg width="28" height="28" viewBox="0 0 28 28" fill="none" xmlns="http://www.w3.org/2000/svg">
<path d="M20.7071 7.29301C20.5759 7.16168 20.4107 7.06948 20.23 7.02674C20.0493 6.98399 19.8603 6.9924 19.6841 7.05101L10.6841 10.051C10.5367 10.1001 10.4028 10.1829 10.2929 10.2928C10.183 10.4027 10.1003 10.5366 10.0511 10.684L7.05112 19.684C6.99236 19.8602 6.98383 20.0493 7.02649 20.2301C7.06915 20.4108 7.16131 20.5761 7.29265 20.7075C7.42398 20.8388 7.5893 20.931 7.77007 20.9736C7.95084 21.0163 8.13992 21.0078 8.31612 20.949L17.3161 17.949C17.4635 17.8999 17.5975 17.8171 17.7073 17.7072C17.8172 17.5973 17.9 17.4634 17.9491 17.316L20.9491 8.31601C21.0077 8.13983 21.0161 7.95082 20.9734 7.77014C20.9306 7.58946 20.8384 7.42425 20.7071 7.29301ZM9.58112 18.42L11.7911 11.792L16.2101 16.211L9.58112 18.42Z" fill="currentColor"/>
<path d="M14 28C11.2311 28 8.52431 27.1789 6.22202 25.6406C3.91973 24.1022 2.12532 21.9157 1.06569 19.3576C0.00606596 16.7994 -0.271181 13.9845 0.269012 11.2687C0.809205 8.55301 2.14258 6.05845 4.10051 4.10051C6.05845 2.14258 8.55301 0.809205 11.2687 0.269012C13.9845 -0.271181 16.7994 0.00606596 19.3576 1.06569C21.9157 2.12532 24.1022 3.91973 25.6406 6.22202C27.1789 8.52431 28 11.2311 28 14C27.9958 17.7117 26.5194 21.2702 23.8948 23.8948C21.2702 26.5194 17.7117 27.9958 14 28ZM14 2.00001C11.6266 2.00001 9.30655 2.70379 7.33316 4.02237C5.35977 5.34095 3.8217 7.21509 2.91345 9.40781C2.0052 11.6005 1.76756 14.0133 2.23058 16.3411C2.69361 18.6689 3.83649 20.8071 5.51472 22.4853C7.19295 24.1635 9.33115 25.3064 11.6589 25.7694C13.9867 26.2325 16.3995 25.9948 18.5922 25.0866C20.7849 24.1783 22.6591 22.6402 23.9776 20.6668C25.2962 18.6935 26 16.3734 26 14C25.9963 10.8185 24.7308 7.76845 22.4812 5.51882C20.2316 3.26918 17.1815 2.00371 14 2.00001Z" fill="currentColor"/>
</svg>
