<svg width="28" height="26" viewBox="0 0 28 26" fill="none" xmlns="http://www.w3.org/2000/svg">
<path d="M3.11111 26C2.25556 26 1.52289 25.7169 0.913113 25.1507C0.303336 24.5844 -0.0010344 23.9046 2.64101e-06 23.1111V2.88889C2.64101e-06 2.09445 0.304892 1.41411 0.914669 0.847891C1.52445 0.281669 2.25659 -0.00096051 3.11111 2.45237e-06H9.33333C10.1889 2.45237e-06 10.9216 0.283114 11.5313 0.849336C12.1411 1.41556 12.4455 2.09541 12.4444 2.88889V23.1111C12.4444 23.9056 12.1396 24.5859 11.5298 25.1521C10.92 25.7183 10.1879 26.001 9.33333 26H3.11111ZM18.6667 10.1111C17.8111 10.1111 17.0784 9.828 16.4687 9.26178C15.8589 8.69556 15.5545 8.01571 15.5556 7.22222V2.88889C15.5556 2.09445 15.8604 1.41411 16.4702 0.847891C17.08 0.281669 17.8121 -0.00096051 18.6667 2.45237e-06H24.8889C25.7444 2.45237e-06 26.4771 0.283114 27.0869 0.849336C27.6967 1.41556 28.001 2.09541 28 2.88889V7.22222C28 8.01667 27.6951 8.697 27.0853 9.26322C26.4756 9.82945 25.7434 10.1121 24.8889 10.1111H18.6667ZM18.6667 26C17.8111 26 17.0784 25.7169 16.4687 25.1507C15.8589 24.5844 15.5545 23.9046 15.5556 23.1111V15.8889C15.5556 15.0944 15.8604 14.4141 16.4702 13.8479C17.08 13.2817 17.8121 12.999 18.6667 13H24.8889C25.7444 13 26.4771 13.2831 27.0869 13.8493C27.6967 14.4156 28.001 15.0954 28 15.8889V23.1111C28 23.9056 27.6951 24.5859 27.0853 25.1521C26.4756 25.7183 25.7434 26.001 24.8889 26H18.6667Z" fill="currentColor"/>
</svg>
