<svg width="32" height="34" viewBox="0 0 32 34" fill="none" xmlns="http://www.w3.org/2000/svg">
<path d="M15.0542 16.9456C19.1813 16.9456 22.527 13.5999 22.527 9.47278C22.527 5.34563 19.1813 1.99991 15.0542 1.99991C10.927 1.99991 7.5813 5.34563 7.5813 9.47278C7.5813 13.5999 10.927 16.9456 15.0542 16.9456Z" stroke="currentColor" stroke-width="2.98915"/>
<path d="M22.5271 31.8915H4.9898C4.56591 31.8916 4.14685 31.8015 3.76043 31.6273C3.37401 31.453 3.02907 31.1986 2.7485 30.8809C2.46793 30.5631 2.25815 30.1893 2.13308 29.7843C2.00801 29.3793 1.97051 28.9523 2.02307 28.5317L2.60595 23.8627C2.74151 22.7779 3.26867 21.7801 4.08832 21.0568C4.90797 20.3335 5.96363 19.9345 7.0568 19.9349H7.58139M25.5163 18.4403V27.4078M21.0326 22.9241H30" stroke="currentColor" stroke-width="2.98915" stroke-linecap="round" stroke-linejoin="round"/>
</svg>
