<svg width="52" height="55" viewBox="0 0 52 55" fill="none" xmlns="http://www.w3.org/2000/svg">
<path d="M24.2457 27.3239C30.9626 27.3239 36.4077 21.8788 36.4077 15.162C36.4077 8.44511 30.9626 3.00002 24.2457 3.00002C17.5288 3.00002 12.0837 8.44511 12.0837 15.162C12.0837 21.8788 17.5288 27.3239 24.2457 27.3239Z" stroke="#346AF2" stroke-width="4.86479"/>
<path d="M36.4075 51.6479H7.86584C7.17597 51.648 6.49396 51.5015 5.86507 51.2179C5.23618 50.9343 4.67479 50.5202 4.21817 50.0031C3.76155 49.486 3.42013 48.8776 3.21658 48.2185C3.01303 47.5593 2.952 46.8644 3.03755 46.1799L3.98618 38.5811C4.20679 36.8157 5.06474 35.1917 6.3987 34.0145C7.73267 32.8374 9.45074 32.1881 11.2298 32.1887H12.0836M41.2723 29.7563V44.3507M33.9751 37.0535H48.5695" stroke="#346AF2" stroke-width="4.86479" stroke-linecap="round" stroke-linejoin="round"/>
</svg>
