<svg width="200" height="55" viewBox="0 0 200 55" fill="none" xmlns="http://www.w3.org/2000/svg">
<rect y="4.00189" width="47" height="46.9962" rx="11" fill="#346AF2"/>
<path d="M33.4966 21.2509C32.9657 21.2527 32.4492 21.4234 32.0218 21.7384L29.8346 20.7385L32.2468 19.6387C32.6241 19.8677 33.0553 19.9928 33.4966 20.0011C33.991 20.0011 34.4742 19.8545 34.8853 19.5799C35.2964 19.3052 35.6168 18.9148 35.8059 18.4581C35.9951 18.0013 36.0446 17.4987 35.9482 17.0139C35.8517 16.529 35.6137 16.0836 35.2641 15.734C34.9145 15.3844 34.4691 15.1464 33.9842 15.0499C33.4994 14.9535 32.9968 15.003 32.54 15.1922C32.0833 15.3814 31.6929 15.7017 31.4182 16.1128C31.1436 16.5239 30.997 17.0071 30.997 17.5015L28.6348 18.5888C28.3121 18.3596 27.9395 18.2103 27.5478 18.1533C27.156 18.0962 26.7563 18.133 26.3816 18.2606C26.0069 18.3882 25.6678 18.603 25.3923 18.8873C25.1168 19.1716 24.9128 19.5173 24.7971 19.8958C24.6813 20.2744 24.6571 20.675 24.7265 21.0648C24.7958 21.4545 24.9568 21.8222 25.1961 22.1376C25.4353 22.453 25.7461 22.707 26.1028 22.8788C26.4594 23.0506 26.8518 23.1352 27.2475 23.1257C27.6502 23.1258 28.0461 23.0226 28.3974 22.8257L31.022 24.0755C31.0845 24.5521 31.283 25.0006 31.5939 25.3672C31.9048 25.7338 32.3148 26.003 32.7747 26.1425C33.2347 26.2821 33.7251 26.286 34.1873 26.1539C34.6495 26.0218 35.0638 25.7593 35.3805 25.3978C35.6973 25.0362 35.903 24.591 35.9732 24.1155C36.0434 23.64 35.975 23.1543 35.7762 22.7167C35.5773 22.279 35.2566 21.908 34.8523 21.6481C34.4479 21.3881 33.9773 21.2502 33.4966 21.2509ZM32.2468 28.7498C31.9153 28.7498 31.5974 28.8815 31.363 29.1159C31.1286 29.3503 30.997 29.6682 30.997 29.9996V30.487L29.1473 28.6373C28.8255 28.3135 28.4429 28.0565 28.0214 27.8811C27.5999 27.7057 27.1479 27.6154 26.6914 27.6154C26.2349 27.6154 25.7829 27.7057 25.3614 27.8811C24.9399 28.0565 24.5573 28.3135 24.2355 28.6373L23.3606 29.5122L20.2611 26.4002C19.608 25.7522 18.7252 25.3886 17.8052 25.3886C16.8852 25.3886 16.0025 25.7522 15.3493 26.4002L13.4996 28.2499V21.2509C13.4996 20.9195 13.6313 20.6016 13.8657 20.3672C14.1001 20.1328 14.418 20.0011 14.7494 20.0011H20.9985C21.33 20.0011 21.6479 19.8695 21.8822 19.6351C22.1166 19.4007 22.2483 19.0828 22.2483 18.7513C22.2483 18.4199 22.1166 18.102 21.8822 17.8676C21.6479 17.6332 21.33 17.5015 20.9985 17.5015H14.7494C13.755 17.5015 12.8013 17.8965 12.0982 18.5997C11.395 19.3029 11 20.2565 11 21.2509V36.2487C11 37.2431 11.395 38.1968 12.0982 38.8999C12.8013 39.6031 13.755 39.9981 14.7494 39.9981H29.7472C30.7416 39.9981 31.6953 39.6031 32.3984 38.8999C33.1016 38.1968 33.4966 37.2431 33.4966 36.2487V29.9996C33.4966 29.6682 33.3649 29.3503 33.1305 29.1159C32.8961 28.8815 32.5783 28.7498 32.2468 28.7498ZM14.7494 37.4985C14.418 37.4985 14.1001 37.3668 13.8657 37.1324C13.6313 36.898 13.4996 36.5801 13.4996 36.2487V31.7869L17.1241 28.1624C17.3077 27.9874 17.5516 27.8898 17.8052 27.8898C18.0589 27.8898 18.3028 27.9874 18.4864 28.1624L22.4483 32.1243L27.81 37.4985H14.7494ZM30.997 36.2487C30.9952 36.4879 30.9163 36.7202 30.772 36.9111L25.1354 31.2494L26.0102 30.3746C26.1929 30.1929 26.44 30.091 26.6976 30.091C26.9552 30.091 27.2024 30.1929 27.385 30.3746L30.997 34.024V36.2487Z" fill="white"/>
<path d="M69.64 41.32C68.8133 41.32 68.1733 41.0933 67.72 40.64C67.2933 40.16 67.08 39.5067 67.08 38.68V15.12C67.08 14.2667 67.2933 13.6133 67.72 13.16C68.1733 12.7067 68.8133 12.48 69.64 12.48C70.4667 12.48 71.0933 12.7067 71.52 13.16C71.9733 13.6133 72.2 14.2667 72.2 15.12V38.68C72.2 39.5067 71.9867 40.16 71.56 40.64C71.1333 41.0933 70.4933 41.32 69.64 41.32ZM79.7291 32.28C79.1424 32.28 78.6491 32.0933 78.2491 31.72C77.8757 31.32 77.6891 30.84 77.6891 30.28C77.6891 29.6933 77.8757 29.2133 78.2491 28.84C78.6491 28.4667 79.1424 28.28 79.7291 28.28H88.2491C88.8091 28.28 89.2757 28.4667 89.6491 28.84C90.0491 29.2133 90.2491 29.6933 90.2491 30.28C90.2491 30.84 90.0491 31.32 89.6491 31.72C89.2757 32.0933 88.8091 32.28 88.2491 32.28H79.7291ZM104.652 41.4C103.478 41.4 102.305 41.3067 101.132 41.12C99.9582 40.96 98.8516 40.7067 97.8116 40.36C96.7716 39.9867 95.8382 39.5333 95.0116 39C94.5316 38.68 94.1982 38.2933 94.0116 37.84C93.8249 37.3867 93.7582 36.9467 93.8116 36.52C93.8916 36.0667 94.0649 35.68 94.3316 35.36C94.6249 35.0133 94.9849 34.8 95.4116 34.72C95.8382 34.64 96.3049 34.76 96.8116 35.08C97.9849 35.7733 99.2249 36.28 100.532 36.6C101.838 36.92 103.212 37.08 104.652 37.08C106.758 37.08 108.292 36.7333 109.252 36.04C110.212 35.32 110.692 34.4 110.692 33.28C110.692 32.3467 110.345 31.6133 109.652 31.08C108.985 30.5467 107.825 30.1067 106.172 29.76L101.772 28.84C99.2382 28.3067 97.3449 27.4133 96.0916 26.16C94.8649 24.88 94.2516 23.2 94.2516 21.12C94.2516 19.8133 94.5182 18.6267 95.0516 17.56C95.5849 16.4933 96.3316 15.5733 97.2916 14.8C98.2782 14.0267 99.4382 13.44 100.772 13.04C102.132 12.6133 103.625 12.4 105.252 12.4C106.852 12.4 108.372 12.6 109.812 13C111.252 13.4 112.545 13.9867 113.692 14.76C114.118 15.0533 114.398 15.4133 114.532 15.84C114.692 16.2667 114.732 16.6933 114.652 17.12C114.572 17.52 114.385 17.8667 114.092 18.16C113.798 18.4533 113.425 18.6267 112.972 18.68C112.545 18.7333 112.052 18.6 111.492 18.28C110.505 17.72 109.505 17.32 108.492 17.08C107.478 16.84 106.385 16.72 105.212 16.72C103.985 16.72 102.932 16.8933 102.052 17.24C101.172 17.5867 100.492 18.08 100.012 18.72C99.5582 19.3333 99.3316 20.0667 99.3316 20.92C99.3316 21.88 99.6516 22.6533 100.292 23.24C100.932 23.8 102.025 24.24 103.572 24.56L107.932 25.48C110.572 26.04 112.532 26.92 113.812 28.12C115.118 29.32 115.772 30.92 115.772 32.92C115.772 34.2 115.505 35.36 114.972 36.4C114.465 37.44 113.718 38.3333 112.732 39.08C111.772 39.8267 110.612 40.4 109.252 40.8C107.892 41.2 106.358 41.4 104.652 41.4ZM122.166 41.32C121.366 41.32 120.753 41.1067 120.326 40.68C119.899 40.2267 119.686 39.5867 119.686 38.76V15C119.686 14.1733 119.899 13.5467 120.326 13.12C120.753 12.6933 121.366 12.48 122.166 12.48C122.966 12.48 123.579 12.6933 124.006 13.12C124.459 13.5467 124.686 14.1733 124.686 15V25.36H124.126C124.713 23.9467 125.619 22.88 126.846 22.16C128.099 21.4133 129.513 21.04 131.086 21.04C132.659 21.04 133.953 21.3333 134.966 21.92C135.979 22.5067 136.739 23.4 137.246 24.6C137.753 25.7733 138.006 27.2667 138.006 29.08V38.76C138.006 39.5867 137.793 40.2267 137.366 40.68C136.939 41.1067 136.326 41.32 135.526 41.32C134.726 41.32 134.099 41.1067 133.646 40.68C133.219 40.2267 133.006 39.5867 133.006 38.76V29.32C133.006 27.8 132.713 26.6933 132.126 26C131.566 25.3067 130.686 24.96 129.486 24.96C128.019 24.96 126.846 25.4267 125.966 26.36C125.113 27.2667 124.686 28.48 124.686 30V38.76C124.686 40.4667 123.846 41.32 122.166 41.32ZM149.524 41.4C148.111 41.4 146.844 41.1333 145.724 40.6C144.631 40.04 143.764 39.2933 143.124 38.36C142.511 37.4267 142.204 36.3733 142.204 35.2C142.204 33.76 142.578 32.6267 143.324 31.8C144.071 30.9467 145.284 30.3333 146.964 29.96C148.644 29.5867 150.898 29.4 153.724 29.4H155.724V32.28H153.764C152.111 32.28 150.791 32.36 149.804 32.52C148.818 32.68 148.111 32.96 147.684 33.36C147.284 33.7333 147.084 34.2667 147.084 34.96C147.084 35.84 147.391 36.56 148.004 37.12C148.618 37.68 149.471 37.96 150.564 37.96C151.444 37.96 152.218 37.76 152.884 37.36C153.578 36.9333 154.124 36.36 154.524 35.64C154.924 34.92 155.124 34.0933 155.124 33.16V28.56C155.124 27.2267 154.831 26.2667 154.244 25.68C153.658 25.0933 152.671 24.8 151.284 24.8C150.511 24.8 149.671 24.8933 148.764 25.08C147.884 25.2667 146.951 25.5867 145.964 26.04C145.458 26.28 145.004 26.3467 144.604 26.24C144.231 26.1333 143.938 25.92 143.724 25.6C143.511 25.2533 143.404 24.88 143.404 24.48C143.404 24.08 143.511 23.6933 143.724 23.32C143.938 22.92 144.298 22.6267 144.804 22.44C146.031 21.9333 147.204 21.5733 148.324 21.36C149.471 21.1467 150.511 21.04 151.444 21.04C153.364 21.04 154.938 21.3333 156.164 21.92C157.418 22.5067 158.351 23.4 158.964 24.6C159.578 25.7733 159.884 27.2933 159.884 29.16V38.76C159.884 39.5867 159.684 40.2267 159.284 40.68C158.884 41.1067 158.311 41.32 157.564 41.32C156.818 41.32 156.231 41.1067 155.804 40.68C155.404 40.2267 155.204 39.5867 155.204 38.76V36.84H155.524C155.338 37.7733 154.964 38.5867 154.404 39.28C153.871 39.9467 153.191 40.4667 152.364 40.84C151.538 41.2133 150.591 41.4 149.524 41.4ZM167.519 41.32C166.693 41.32 166.053 41.1067 165.599 40.68C165.173 40.2267 164.959 39.5867 164.959 38.76V23.64C164.959 22.8133 165.173 22.1867 165.599 21.76C166.026 21.3333 166.626 21.12 167.399 21.12C168.173 21.12 168.773 21.3333 169.199 21.76C169.626 22.1867 169.839 22.8133 169.839 23.64V26.16H169.439C169.813 24.56 170.546 23.3467 171.639 22.52C172.733 21.6933 174.186 21.2 175.999 21.04C176.559 20.9867 176.999 21.1333 177.319 21.48C177.666 21.8 177.866 22.3067 177.919 23C177.973 23.6667 177.813 24.2133 177.439 24.64C177.093 25.04 176.559 25.28 175.839 25.36L174.959 25.44C173.333 25.6 172.106 26.1067 171.279 26.96C170.453 27.7867 170.039 28.96 170.039 30.48V38.76C170.039 39.5867 169.826 40.2267 169.399 40.68C168.973 41.1067 168.346 41.32 167.519 41.32ZM189.951 41.4C187.738 41.4 185.831 40.9867 184.231 40.16C182.631 39.3333 181.391 38.16 180.511 36.64C179.658 35.12 179.231 33.32 179.231 31.24C179.231 29.2133 179.644 27.44 180.471 25.92C181.324 24.4 182.484 23.2133 183.951 22.36C185.444 21.48 187.138 21.04 189.031 21.04C190.418 21.04 191.658 21.2667 192.751 21.72C193.871 22.1733 194.818 22.8267 195.591 23.68C196.391 24.5333 196.991 25.5733 197.391 26.8C197.818 28 198.031 29.36 198.031 30.88C198.031 31.36 197.858 31.7333 197.511 32C197.191 32.24 196.724 32.36 196.111 32.36H183.271V29.48H194.511L193.871 30.08C193.871 28.8533 193.684 27.8267 193.311 27C192.964 26.1733 192.444 25.5467 191.751 25.12C191.084 24.6667 190.244 24.44 189.231 24.44C188.111 24.44 187.151 24.7067 186.351 25.24C185.578 25.7467 184.978 26.48 184.551 27.44C184.151 28.3733 183.951 29.4933 183.951 30.8V31.08C183.951 33.2667 184.458 34.9067 185.471 36C186.511 37.0667 188.031 37.6 190.031 37.6C190.724 37.6 191.498 37.52 192.351 37.36C193.231 37.1733 194.058 36.8667 194.831 36.44C195.391 36.12 195.884 35.9867 196.311 36.04C196.738 36.0667 197.071 36.2133 197.311 36.48C197.578 36.7467 197.738 37.08 197.791 37.48C197.844 37.8533 197.764 38.24 197.551 38.64C197.364 39.04 197.031 39.3867 196.551 39.68C195.618 40.2667 194.538 40.7067 193.311 41C192.111 41.2667 190.991 41.4 189.951 41.4Z" fill="black"/>
</svg>
