<svg width="48" height="47" viewBox="0 0 48 47" fill="none" xmlns="http://www.w3.org/2000/svg">
<rect x="0.5" y="0.00189209" width="47" height="46.9962" rx="11" fill="#346AF2"/>
<path d="M33.9966 17.2509C33.4657 17.2527 32.9492 17.4234 32.5218 17.7384L30.3346 16.7385L32.7468 15.6387C33.1241 15.8677 33.5553 15.9928 33.9966 16.0011C34.491 16.0011 34.9742 15.8545 35.3853 15.5799C35.7964 15.3052 36.1168 14.9148 36.3059 14.4581C36.4951 14.0013 36.5446 13.4987 36.4482 13.0139C36.3517 12.529 36.1137 12.0836 35.7641 11.734C35.4145 11.3844 34.9691 11.1464 34.4842 11.0499C33.9994 10.9535 33.4968 11.003 33.04 11.1922C32.5833 11.3814 32.1929 11.7017 31.9182 12.1128C31.6436 12.5239 31.497 13.0071 31.497 13.5015L29.1348 14.5888C28.8121 14.3596 28.4395 14.2103 28.0478 14.1533C27.656 14.0962 27.2563 14.133 26.8816 14.2606C26.5069 14.3882 26.1678 14.603 25.8923 14.8873C25.6168 15.1716 25.4128 15.5173 25.2971 15.8958C25.1813 16.2744 25.1571 16.675 25.2265 17.0648C25.2958 17.4545 25.4568 17.8222 25.6961 18.1376C25.9353 18.453 26.2461 18.707 26.6028 18.8788C26.9594 19.0506 27.3518 19.1352 27.7475 19.1257C28.1502 19.1258 28.5461 19.0226 28.8974 18.8257L31.522 20.0755C31.5845 20.5521 31.783 21.0006 32.0939 21.3672C32.4048 21.7338 32.8148 22.003 33.2747 22.1425C33.7347 22.2821 34.2251 22.286 34.6873 22.1539C35.1495 22.0218 35.5638 21.7593 35.8805 21.3978C36.1973 21.0362 36.403 20.591 36.4732 20.1155C36.5434 19.64 36.475 19.1543 36.2762 18.7167C36.0773 18.279 35.7566 17.908 35.3523 17.6481C34.9479 17.3881 34.4773 17.2502 33.9966 17.2509ZM32.7468 24.7498C32.4153 24.7498 32.0974 24.8815 31.863 25.1159C31.6286 25.3503 31.497 25.6682 31.497 25.9996V26.487L29.6473 24.6373C29.3255 24.3135 28.9429 24.0565 28.5214 23.8811C28.0999 23.7057 27.6479 23.6154 27.1914 23.6154C26.7349 23.6154 26.2829 23.7057 25.8614 23.8811C25.4399 24.0565 25.0573 24.3135 24.7355 24.6373L23.8606 25.5122L20.7611 22.4002C20.108 21.7522 19.2252 21.3886 18.3052 21.3886C17.3852 21.3886 16.5025 21.7522 15.8493 22.4002L13.9996 24.2499V17.2509C13.9996 16.9195 14.1313 16.6016 14.3657 16.3672C14.6001 16.1328 14.918 16.0011 15.2494 16.0011H21.4985C21.83 16.0011 22.1479 15.8695 22.3822 15.6351C22.6166 15.4007 22.7483 15.0828 22.7483 14.7513C22.7483 14.4199 22.6166 14.102 22.3822 13.8676C22.1479 13.6332 21.83 13.5015 21.4985 13.5015H15.2494C14.255 13.5015 13.3013 13.8965 12.5982 14.5997C11.895 15.3029 11.5 16.2565 11.5 17.2509V32.2487C11.5 33.2431 11.895 34.1968 12.5982 34.8999C13.3013 35.6031 14.255 35.9981 15.2494 35.9981H30.2472C31.2416 35.9981 32.1953 35.6031 32.8984 34.8999C33.6016 34.1968 33.9966 33.2431 33.9966 32.2487V25.9996C33.9966 25.6682 33.8649 25.3503 33.6305 25.1159C33.3961 24.8815 33.0783 24.7498 32.7468 24.7498ZM15.2494 33.4985C14.918 33.4985 14.6001 33.3668 14.3657 33.1324C14.1313 32.898 13.9996 32.5801 13.9996 32.2487V27.7869L17.6241 24.1624C17.8077 23.9874 18.0516 23.8898 18.3052 23.8898C18.5589 23.8898 18.8028 23.9874 18.9864 24.1624L22.9483 28.1243L28.31 33.4985H15.2494ZM31.497 32.2487C31.4952 32.4879 31.4163 32.7202 31.272 32.9111L25.6354 27.2494L26.5102 26.3746C26.6929 26.1929 26.94 26.091 27.1976 26.091C27.4552 26.091 27.7024 26.1929 27.885 26.3746L31.497 30.024V32.2487Z" fill="white"/>
</svg>
