<svg width="31" height="28" viewBox="0 0 31 28" fill="none" xmlns="http://www.w3.org/2000/svg">
<path d="M23 19.959L29 13.959M29 13.959L23 7.95905M29 13.959H8M17 19.959V21.459C17 22.6525 16.5259 23.7971 15.682 24.641C14.8381 25.4849 13.6935 25.959 12.5 25.959H6.5C5.30653 25.959 4.16193 25.4849 3.31802 24.641C2.47411 23.7971 2 22.6525 2 21.459V6.45905C2 5.26557 2.47411 4.12098 3.31802 3.27707C4.16193 2.43315 5.30653 1.95905 6.5 1.95905H12.5C13.6935 1.95905 14.8381 2.43315 15.682 3.27707C16.5259 4.12098 17 5.26557 17 6.45905V7.95905" stroke="currentColor" stroke-width="3" stroke-linecap="round" stroke-linejoin="round"/>
</svg>
