<svg width="21" height="21" viewBox="0 0 21 21" fill="none" xmlns="http://www.w3.org/2000/svg">
<path d="M19.7309 18.8125L16.0209 15.1325C17.461 13.337 18.1584 11.0578 17.9697 8.76385C17.781 6.46985 16.7206 4.33533 15.0064 2.79919C13.2923 1.26305 11.0547 0.442059 8.75382 0.505019C6.45294 0.567979 4.26362 1.51011 2.63604 3.13769C1.00846 4.76527 0.0663314 6.95459 0.00337096 9.25547C-0.0595894 11.5564 0.761407 13.7939 2.29754 15.5081C3.83368 17.2222 5.9682 18.2827 8.2622 18.4714C10.5562 18.6601 12.8353 17.9626 14.6309 16.5225L18.3109 20.2025C18.4039 20.2963 18.5145 20.3707 18.6363 20.4214C18.7582 20.4722 18.8889 20.4983 19.0209 20.4983C19.1529 20.4983 19.2836 20.4722 19.4055 20.4214C19.5273 20.3707 19.6379 20.2963 19.7309 20.2025C19.9111 20.0161 20.0119 19.7669 20.0119 19.5075C20.0119 19.2482 19.9111 18.999 19.7309 18.8125ZM9.0209 16.5225C7.63643 16.5225 6.28305 16.112 5.13191 15.3428C3.98076 14.5737 3.08356 13.4804 2.55374 12.2013C2.02393 10.9223 1.88531 9.51478 2.1554 8.15692C2.4255 6.79905 3.09219 5.55177 4.07115 4.5728C5.05012 3.59383 6.2974 2.92715 7.65527 2.65705C9.01314 2.38695 10.4206 2.52558 11.6997 3.05539C12.9788 3.58521 14.072 4.48241 14.8412 5.63356C15.6104 6.7847 16.0209 8.13808 16.0209 9.52255C16.0209 11.3791 15.2834 13.1595 13.9706 14.4723C12.6579 15.7851 10.8774 16.5225 9.0209 16.5225Z" fill="black"/>
</svg>
