<svg width="40" height="47" viewBox="0 0 40 47" fill="none" xmlns="http://www.w3.org/2000/svg">
<path d="M31.6694 30.0037C30.5582 30.0019 29.458 30.2241 28.4346 30.6571C27.4112 31.0901 26.4856 31.7249 25.713 32.5237L16.1121 26.359C16.8615 24.4155 16.8615 22.2628 16.1121 20.3193L25.713 14.1547C27.0637 15.536 28.8525 16.405 30.7732 16.6128C32.6939 16.8207 34.6271 16.3545 36.242 15.2941C37.8569 14.2337 39.053 12.6449 39.6256 10.7998C40.1983 8.95475 40.1118 6.96798 39.3811 5.17959C38.6503 3.3912 37.3207 1.91239 35.6198 0.996254C33.919 0.0801183 31.9525 -0.216377 30.0572 0.157515C28.1618 0.531407 26.4552 1.55244 25.2297 3.04586C24.0041 4.53927 23.3357 6.41222 23.3388 8.34414C23.3422 9.37647 23.5327 10.3996 23.9011 11.364L14.3001 17.5286C13.1442 16.3411 11.6604 15.5253 10.0384 15.1855C8.4164 14.8458 6.72992 14.9976 5.19461 15.6214C3.6593 16.2452 2.34495 17.3128 1.41961 18.6876C0.49427 20.0624 0 21.682 0 23.3392C0 24.9964 0.49427 26.6159 1.41961 27.9908C2.34495 29.3656 3.6593 30.4331 5.19461 31.057C6.72992 31.6808 8.4164 31.8326 10.0384 31.4928C11.6604 31.1531 13.1442 30.3373 14.3001 29.1498L23.9011 35.3144C23.5327 36.2787 23.3422 37.3019 23.3388 38.3342C23.3388 39.9819 23.8274 41.5925 24.7428 42.9625C25.6582 44.3324 26.9592 45.4002 28.4814 46.0307C30.0036 46.6612 31.6787 46.8262 33.2946 46.5047C34.9106 46.1833 36.395 45.3899 37.56 44.2248C38.7251 43.0598 39.5185 41.5754 39.8399 39.9595C40.1614 38.3435 39.9964 36.6685 39.3659 35.1463C38.7353 33.624 37.6676 32.323 36.2976 31.4076C34.9277 30.4922 33.317 30.0037 31.6694 30.0037ZM31.6694 3.34579C32.658 3.34579 33.6244 3.63894 34.4463 4.18816C35.2683 4.73739 35.909 5.51802 36.2873 6.43135C36.6656 7.34468 36.7646 8.34968 36.5717 9.31927C36.3789 10.2889 35.9028 11.1795 35.2038 11.8785C34.5047 12.5775 33.6141 13.0536 32.6445 13.2464C31.675 13.4393 30.67 13.3403 29.7566 12.962C28.8433 12.5837 28.0627 11.943 27.5134 11.1211C26.9642 10.2991 26.6711 9.33272 26.6711 8.34414C26.6765 7.02018 27.2049 5.75202 28.1411 4.81583C29.0773 3.87964 30.3455 3.35127 31.6694 3.34579ZM8.34378 28.3375C7.3552 28.3375 6.38882 28.0444 5.56685 27.4952C4.74488 26.9459 4.10422 26.1653 3.72591 25.252C3.3476 24.3386 3.24861 23.3336 3.44148 22.3641C3.63434 21.3945 4.11039 20.5039 4.80942 19.8048C5.50845 19.1058 6.39907 18.6297 7.36865 18.4369C8.33824 18.244 9.34324 18.343 10.2566 18.7213C11.1699 19.0996 11.9505 19.7403 12.4998 20.5623C13.049 21.3842 13.3421 22.3506 13.3421 23.3392C13.3367 24.6631 12.8083 25.9313 11.8721 26.8675C10.9359 27.8037 9.66774 28.3321 8.34378 28.3375ZM31.6694 43.3326C30.6808 43.3326 29.7145 43.0394 28.8925 42.4902C28.0705 41.941 27.4299 41.1603 27.0515 40.247C26.6732 39.3337 26.5742 38.3287 26.7671 37.3591C26.96 36.3895 27.436 35.4989 28.135 34.7999C28.8341 34.1008 29.7247 33.6248 30.6943 33.4319C31.6639 33.2391 32.6689 33.338 33.5822 33.7164C34.4955 34.0947 35.2762 34.7353 35.8254 35.5573C36.3746 36.3793 36.6678 37.3457 36.6678 38.3342C36.6623 39.6582 36.1339 40.9264 35.1977 41.8625C34.2615 42.7987 32.9934 43.3271 31.6694 43.3326Z" fill="#346AF2"/>
</svg>
