<svg width="79" height="79" viewBox="0 0 79 79" fill="none" xmlns="http://www.w3.org/2000/svg">
<path d="M41.4211 72.1579H5.30526C4.69387 72.1579 4.10752 71.915 3.6752 71.4827C3.24288 71.0504 3 70.464 3 69.8526V5.30526C3 4.69387 3.24288 4.10752 3.6752 3.6752C4.10752 3.24288 4.69387 3 5.30526 3H69.8526C70.464 3 71.0504 3.24288 71.4827 3.6752C71.915 4.10752 72.1579 4.69387 72.1579 5.30526V41.4211" stroke="#444444" stroke-width="5.76316" stroke-linecap="round" stroke-linejoin="round"/>
<path d="M3 52.9474L29.8947 41.421L51.0263 51.0263M52.9474 64.4737H64.4737M64.4737 64.4737H76M64.4737 64.4737V52.9474M64.4737 64.4737V76M52.9474 29.8947C50.9094 29.8947 48.9549 29.0851 47.5138 27.6441C46.0727 26.203 45.2632 24.2485 45.2632 22.2105C45.2632 20.1725 46.0727 18.218 47.5138 16.777C48.9549 15.3359 50.9094 14.5263 52.9474 14.5263C54.9853 14.5263 56.9399 15.3359 58.3809 16.777C59.822 18.218 60.6316 20.1725 60.6316 22.2105C60.6316 24.2485 59.822 26.203 58.3809 27.6441C56.9399 29.0851 54.9853 29.8947 52.9474 29.8947Z" stroke="#444444" stroke-width="5.76316" stroke-linecap="round" stroke-linejoin="round"/>
</svg>
