<svg width="20" height="21" viewBox="0 0 20 21" fill="none" xmlns="http://www.w3.org/2000/svg">
<path d="M4.95022 6.7513C4.83834 6.63981 4.74957 6.50733 4.689 6.36147C4.62843 6.2156 4.59726 6.05921 4.59726 5.90126C4.59726 5.74332 4.62843 5.58693 4.689 5.44106C4.74957 5.29519 4.83834 5.16271 4.95022 5.05123L9.1504 0.851039C9.26189 0.739162 9.39437 0.650394 9.54024 0.589825C9.68611 0.529256 9.8425 0.498077 10.0004 0.498077C10.1584 0.498077 10.3148 0.529256 10.4606 0.589825C10.6065 0.650394 10.739 0.739162 10.8505 0.851039L15.0507 5.05123C15.1625 5.16271 15.2513 5.29519 15.3119 5.44106C15.3724 5.58693 15.4036 5.74332 15.4036 5.90126C15.4036 6.05921 15.3724 6.2156 15.3119 6.36147C15.2513 6.50733 15.1625 6.63981 15.0507 6.7513C14.8242 6.97482 14.5188 7.10015 14.2006 7.10015C13.8824 7.10015 13.577 6.97482 13.3506 6.7513L11.2005 4.60121V12.9016C11.2005 13.2198 11.0741 13.5251 10.849 13.7501C10.624 13.9752 10.3187 14.1016 10.0004 14.1016C9.68217 14.1016 9.37693 13.9752 9.15188 13.7501C8.92682 13.5251 8.80039 13.2198 8.80039 12.9016V4.60121L6.65029 6.7513C6.5388 6.86318 6.40633 6.95195 6.26046 7.01251C6.11459 7.07308 5.9582 7.10426 5.80026 7.10426C5.64231 7.10426 5.48592 7.07308 5.34005 7.01251C5.19418 6.95195 5.06171 6.86318 4.95022 6.7513ZM18.8008 11.7015C18.4826 11.7015 18.1773 11.828 17.9523 12.053C17.7272 12.2781 17.6008 12.5833 17.6008 12.9016V18.1018H2.40011V12.9016C2.40011 12.5833 2.27367 12.2781 2.04862 12.053C1.82357 11.828 1.51833 11.7015 1.20005 11.7015C0.881779 11.7015 0.576541 11.828 0.351487 12.053C0.126434 12.2781 0 12.5833 0 12.9016V18.5018C0.00262857 19.0315 0.214196 19.5387 0.588717 19.9132C0.963238 20.2877 1.47044 20.4993 2.00009 20.5019H18.0008C18.5304 20.4993 19.0376 20.2877 19.4122 19.9132C19.7867 19.5387 19.9983 19.0315 20.0009 18.5018V12.9016C20.0009 12.5833 19.8744 12.2781 19.6494 12.053C19.4243 11.828 19.1191 11.7015 18.8008 11.7015Z" fill="currentColor"/>
</svg>
