<svg width="26" height="27" viewBox="0 0 26 27" fill="none" xmlns="http://www.w3.org/2000/svg">
<path d="M6.435 8.12883C6.28957 7.9839 6.17417 7.81169 6.09544 7.62207C6.0167 7.43245 5.97617 7.22915 5.97617 7.02383C5.97617 6.81851 6.0167 6.61521 6.09544 6.42559C6.17417 6.23597 6.28957 6.06376 6.435 5.91883L11.895 0.45883C12.0399 0.313397 12.2121 0.198003 12.4018 0.119267C12.5914 0.0405304 12.7947 0 13 0C13.2053 0 13.4086 0.0405304 13.5982 0.119267C13.7879 0.198003 13.9601 0.313397 14.105 0.45883L19.565 5.91883C19.7104 6.06376 19.8258 6.23597 19.9046 6.42559C19.9833 6.61521 20.0238 6.81851 20.0238 7.02383C20.0238 7.22915 19.9833 7.43245 19.9046 7.62207C19.8258 7.81169 19.7104 7.9839 19.565 8.12883C19.2706 8.4194 18.8736 8.58232 18.46 8.58232C18.0464 8.58232 17.6494 8.4194 17.355 8.12883L14.56 5.33383V16.1238C14.56 16.5376 14.3956 16.9344 14.1031 17.2269C13.8105 17.5195 13.4137 17.6838 13 17.6838C12.5863 17.6838 12.1895 17.5195 11.8969 17.2269C11.6044 16.9344 11.44 16.5376 11.44 16.1238V5.33383L8.645 8.12883C8.50007 8.27426 8.32786 8.38966 8.13824 8.46839C7.94862 8.54713 7.74532 8.58766 7.54 8.58766C7.33468 8.58766 7.13138 8.54713 6.94176 8.46839C6.75214 8.38966 6.57993 8.27426 6.435 8.12883ZM24.44 14.5638C24.0263 14.5638 23.6295 14.7282 23.3369 15.0207C23.0444 15.3133 22.88 15.7101 22.88 16.1238V22.8838H3.12V16.1238C3.12 15.7101 2.95564 15.3133 2.66309 15.0207C2.37053 14.7282 1.97374 14.5638 1.56 14.5638C1.14626 14.5638 0.74947 14.7282 0.456913 15.0207C0.164357 15.3133 0 15.7101 0 16.1238V23.4038C0.00341698 24.0923 0.278442 24.7517 0.765298 25.2385C1.25215 25.7254 1.91149 26.0004 2.6 26.0038H23.4C24.0885 26.0004 24.7478 25.7254 25.2347 25.2385C25.7216 24.7517 25.9966 24.0923 26 23.4038V16.1238C26 15.7101 25.8356 15.3133 25.5431 15.0207C25.2505 14.7282 24.8537 14.5638 24.44 14.5638Z" fill="white"/>
</svg>
