<svg width="27" height="27" viewBox="0 0 27 27" fill="none" xmlns="http://www.w3.org/2000/svg">
<path d="M23.6238 6.56217C23.0663 6.564 22.5239 6.74327 22.0751 7.07401L19.7784 6.02407L22.3114 4.86913C22.7076 5.10964 23.1604 5.24096 23.6238 5.24973C24.1429 5.24973 24.6504 5.09579 25.0821 4.80736C25.5137 4.51894 25.8502 4.10899 26.0489 3.62936C26.2475 3.14973 26.2995 2.62196 26.1982 2.11278C26.0969 1.60361 25.8469 1.1359 25.4799 0.768806C25.1128 0.401712 24.6451 0.151718 24.1359 0.0504372C23.6267 -0.0508438 23.0989 0.0011373 22.6193 0.199807C22.1397 0.398477 21.7297 0.734913 21.4413 1.16657C21.1529 1.59823 20.9989 2.10572 20.9989 2.62487L18.5184 3.76668C18.1795 3.52597 17.7883 3.36919 17.3769 3.30926C16.9655 3.24933 16.5458 3.28797 16.1523 3.42198C15.7588 3.55599 15.4027 3.78155 15.1134 4.08009C14.8242 4.37863 14.6099 4.74161 14.4884 5.13915C14.3668 5.53668 14.3414 5.95741 14.4142 6.36668C14.4871 6.77596 14.6561 7.16208 14.9074 7.49325C15.1586 7.82443 15.485 8.09119 15.8595 8.27158C16.234 8.45196 16.646 8.54081 17.0616 8.53082C17.4844 8.53101 17.9002 8.42255 18.2691 8.21583L21.0252 9.52826C21.0908 10.0287 21.2993 10.4997 21.6258 10.8847C21.9522 11.2696 22.3827 11.5523 22.8658 11.6989C23.3488 11.8454 23.8638 11.8495 24.3491 11.7108C24.8344 11.5721 25.2695 11.2964 25.6021 10.9168C25.9347 10.5371 26.1508 10.0696 26.2245 9.57024C26.2982 9.07089 26.2264 8.56088 26.0176 8.10133C25.8088 7.64178 25.4719 7.25216 25.0474 6.97918C24.6228 6.70619 24.1285 6.5614 23.6238 6.56217ZM22.3114 14.4368C21.9633 14.4368 21.6295 14.575 21.3833 14.8212C21.1372 15.0673 20.9989 15.4011 20.9989 15.7492V16.261L19.0565 14.3186C18.7186 13.9786 18.3168 13.7087 17.8742 13.5245C17.4316 13.3403 16.957 13.2455 16.4776 13.2455C15.9982 13.2455 15.5236 13.3403 15.081 13.5245C14.6384 13.7087 14.2365 13.9786 13.8987 14.3186L12.98 15.2373L9.72513 11.9694C9.03928 11.289 8.11231 10.9071 7.1462 10.9071C6.18008 10.9071 5.25311 11.289 4.56727 11.9694L2.62487 13.9118V6.56217C2.62487 6.21409 2.76314 5.88026 3.00927 5.63414C3.2554 5.38801 3.58922 5.24973 3.9373 5.24973H10.4995C10.8475 5.24973 11.1814 5.11146 11.4275 4.86533C11.6736 4.6192 11.8119 4.28538 11.8119 3.9373C11.8119 3.58922 11.6736 3.2554 11.4275 3.00927C11.1814 2.76314 10.8475 2.62487 10.4995 2.62487H3.9373C2.89306 2.62487 1.89159 3.03969 1.15321 3.77808C0.414821 4.51646 0 5.51793 0 6.56217V22.3114C0 23.3556 0.414821 24.3571 1.15321 25.0954C1.89159 25.8338 2.89306 26.2487 3.9373 26.2487H19.6865C20.7307 26.2487 21.7322 25.8338 22.4706 25.0954C23.209 24.3571 23.6238 23.3556 23.6238 22.3114V15.7492C23.6238 15.4011 23.4855 15.0673 23.2394 14.8212C22.9933 14.575 22.6594 14.4368 22.3114 14.4368ZM3.9373 23.6238C3.58922 23.6238 3.2554 23.4855 3.00927 23.2394C2.76314 22.9933 2.62487 22.6594 2.62487 22.3114V17.626L6.43092 13.8199C6.62373 13.6362 6.87986 13.5337 7.1462 13.5337C7.41254 13.5337 7.66866 13.6362 7.86147 13.8199L12.0219 17.9803L17.6522 23.6238H3.9373ZM20.9989 22.3114C20.997 22.5626 20.9142 22.8065 20.7627 23.0069L14.8436 17.0616L15.7623 16.1429C15.9541 15.9522 16.2136 15.8451 16.4842 15.8451C16.7547 15.8451 17.0142 15.9522 17.206 16.1429L20.9989 19.9752V22.3114Z" fill="white"/>
</svg>
