<svg width="27" height="27" viewBox="0 0 27 27" fill="none" xmlns="http://www.w3.org/2000/svg">
<path d="M25 12.7474C25.0044 14.4339 24.6103 16.0976 23.85 17.6029C22.9484 19.4068 21.5624 20.9241 19.8473 21.9848C18.1321 23.0455 16.1555 23.6077 14.1389 23.6085C12.4524 23.6129 10.7887 23.2189 9.28332 22.4585L2 24.8863L4.42777 17.6029C3.66741 16.0976 3.27338 14.4339 3.27778 12.7474C3.27856 10.7308 3.84078 8.75415 4.90147 7.03899C5.96216 5.32383 7.47943 3.93785 9.28332 3.0363C10.7887 2.27593 12.4524 1.8819 14.1389 1.8863H14.7778C17.4411 2.03323 19.9566 3.15738 21.8428 5.0435C23.7289 6.92962 24.853 9.44517 25 12.1085V12.7474Z" stroke="#444444" stroke-width="2.55555" stroke-linecap="round" stroke-linejoin="round"/>
</svg>
