<svg width="168" height="168" viewBox="0 0 168 168" fill="none" xmlns="http://www.w3.org/2000/svg">
<path d="M8.97292 1.53951C8.48484 1.05142 7.9054 0.664256 7.26768 0.400106C6.62997 0.135956 5.94647 5.14281e-09 5.25622 0C4.56596 -5.14281e-09 3.88246 0.135956 3.24475 0.400106C2.60704 0.664256 2.02759 1.05142 1.53951 1.53951C1.05142 2.02759 0.664256 2.60704 0.400106 3.24475C0.135956 3.88246 -5.14281e-09 4.56596 0 5.25622C5.14281e-09 5.94647 0.135956 6.62997 0.400106 7.26768C0.664256 7.9054 1.05142 8.48484 1.53951 8.97292L16.3328 23.7558C12.5305 29.0795 10.4926 35.4612 10.5058 42.0033V104.998C10.5058 111.802 12.6581 118.101 16.3328 123.246L58.6445 80.9342C61.2474 78.318 64.4969 76.4379 68.0623 75.4852L132.254 139.677C125.907 144.439 118.183 147.007 110.248 146.995H39.5255C45.3001 153.442 53.6784 157.494 63.0017 157.494H110.248C120.969 157.511 131.374 153.866 139.74 147.163L159.027 166.46C160.013 167.446 161.35 168 162.744 168C164.138 168 165.475 167.446 166.46 166.46C167.446 165.475 168 164.138 168 162.744C168 161.35 167.446 160.013 166.46 159.027L8.97292 1.53951ZM144.864 122.595L152.885 130.616C155.928 124.258 157.503 117.297 157.494 110.248V63.0017C157.494 53.6784 153.442 45.2896 146.995 39.5255V110.248C146.985 114.454 146.264 118.629 144.864 122.595ZM33.8455 11.5767L135.425 113.156C136.128 110.552 136.496 107.823 136.496 104.998V42.0033C136.496 33.6497 133.177 25.6381 127.27 19.7312C121.364 13.8243 113.352 10.5058 104.998 10.5058H42.0033C39.179 10.5058 36.4388 10.8733 33.8455 11.5767ZM110.248 47.2529C110.248 50.0375 109.142 52.708 107.173 54.6769C105.204 56.6459 102.533 57.7521 99.7488 57.7521C96.9642 57.7521 94.2937 56.6459 92.3247 54.6769C90.3557 52.708 89.2496 50.0375 89.2496 47.2529C89.2496 44.4683 90.3557 41.7978 92.3247 39.8289C94.2937 37.8599 96.9642 36.7537 99.7488 36.7537C102.533 36.7537 105.204 37.8599 107.173 39.8289C109.142 41.7978 110.248 44.4683 110.248 47.2529ZM123.246 130.669L80.9342 88.3572C79.9592 87.381 78.8012 86.6066 77.5266 86.0782C76.2521 85.5498 74.8858 85.2779 73.5061 85.2779C72.1263 85.2779 70.7601 85.5498 69.4855 86.0782C68.2109 86.6066 67.053 87.381 66.0779 88.3572L23.7558 130.669C28.9004 134.344 35.1999 136.496 42.0033 136.496H104.998C111.54 136.509 117.922 134.471 123.246 130.669Z" fill="#686868"/>
</svg>
